<svg aria-hidden="true" xmlns="http://www.w3.org/2000/svg" xmlns:xlink="http://www.w3.org/1999/xlink"><symbol viewBox="0 0 18 13" id="arrow-check-box" xmlns="http://www.w3.org/2000/svg">
<path d="M6.5 10.17L15.693 0.979004L17.107 2.393L6.501 12.999L0.137001 6.635L1.551 5.221L6.501 10.171L6.5 10.17Z"/>
</symbol><symbol viewBox="0 0 24 24" id="arrow-slider" xmlns="http://www.w3.org/2000/svg">
<path d="M16.7176 20.3128C16.8078 20.4082 16.8783 20.5205 16.9251 20.6433C16.9719 20.766 16.9941 20.8967 16.9904 21.028C16.9867 21.1593 16.9572 21.2886 16.9035 21.4085C16.8498 21.5284 16.773 21.6365 16.6776 21.7268C16.5821 21.817 16.4698 21.8875 16.3471 21.9343C16.2243 21.9811 16.0936 22.0033 15.9623 21.9996C15.831 21.9959 15.7017 21.9663 15.5818 21.9127C15.4619 21.859 15.3538 21.7822 15.2636 21.6868L6.76357 12.6868C6.58803 12.5011 6.49022 12.2553 6.49022 11.9998C6.49022 11.7442 6.58803 11.4984 6.76357 11.3128L15.2636 2.31175C15.3532 2.21419 15.4613 2.13541 15.5816 2.07998C15.702 2.02456 15.8321 1.9936 15.9645 1.98889C16.0969 1.98419 16.2289 2.00584 16.3529 2.05258C16.4768 2.09933 16.5902 2.17024 16.6866 2.26119C16.7829 2.35215 16.8602 2.46133 16.9139 2.58241C16.9677 2.70349 16.9969 2.83404 16.9998 2.96649C17.0026 3.09893 16.9792 3.23063 16.9307 3.35394C16.8823 3.47724 16.8098 3.58969 16.7176 3.68475L8.86557 11.9998L16.7176 20.3128Z"/>
</symbol><symbol viewBox="0 0 113 35" id="bitmart" xmlns="http://www.w3.org/2000/svg">
<path d="M22.2534 7.18859C20.6556 5.8545 18.4683 5.19531 15.6761 5.19531H8.7265V6.1841H15.552C17.9254 6.1841 20.0661 6.67065 21.3847 7.83208C22.7032 8.99352 23.6805 10.6886 23.6805 12.7917C23.6805 14.8321 22.8118 16.3231 21.4622 17.4689C20.1126 18.6146 17.6617 19.1168 15.2262 19.1168H7.39243V20.1056H15.2883C18.2201 20.1056 20.516 19.4621 22.1758 18.1751C23.8201 16.8881 24.6578 15.0675 24.6578 12.7289C24.6578 10.3433 23.8512 8.50697 22.2534 7.18859Z" fill-opacity="0.8"/>
<path d="M21.6643 8.59992C20.6715 7.83086 19.5391 7.21875 16.3125 7.21875H10.9452V8.17615C10.9452 8.17615 13.3496 8.14476 16.1884 8.17615C18.9341 8.20754 19.9424 8.52144 20.8731 9.21202C22.0521 10.0909 22.7967 11.1896 22.7967 12.712C22.7967 14.1874 22.0521 15.2232 20.8576 16.1179C19.6477 17.0282 17.7862 17.0282 17.026 17.0596C16.7468 17.0596 13.0393 17.0596 13.0393 17.0596V18.017C13.0393 18.017 14.8698 18.0483 16.0177 18.017C18.6238 17.9542 20.1751 17.7972 21.6177 16.7143C22.9673 15.6941 23.6809 14.36 23.6809 12.6649C23.6809 10.4362 22.564 9.32189 21.6643 8.59992Z" fill-opacity="0.8"/>
<path d="M21.1836 9.87069C20.439 9.39984 19.7874 9.08594 16.7005 9.08594H12.8379V9.71374H16.5919C19.3221 9.71374 20.3459 10.2003 20.6716 10.4043C21.2921 10.781 22.0988 11.4088 22.0988 12.6644C22.0988 13.4649 21.6334 14.485 20.9354 14.8774C20.2993 15.2384 19.1359 15.568 17.1038 15.568H4.50766V16.1958H17.1348C19.6013 16.1958 20.439 15.9133 21.3077 15.4267C22.1764 14.9402 22.7658 13.9357 22.7658 12.6644C22.7658 11.2205 21.9747 10.3729 21.1836 9.87069Z" fill-opacity="0.8"/>
<path d="M23.6342 16.8253C22.0364 15.4912 19.8492 14.832 17.0569 14.832H12.4032V15.8208H16.9173C19.2907 15.8208 21.4315 16.3231 22.75 17.4688C24.0686 18.6145 25.0614 20.3253 25.0614 22.4284C25.0614 24.4688 24.2082 25.9598 22.8431 27.1056C21.478 28.2513 19.0425 28.7536 16.6071 28.7536H8.77328V29.7423H16.6691C19.601 29.7423 21.8968 29.0989 23.5567 27.8119C25.2165 26.5249 26.0387 24.7042 26.0387 22.3657C26.0231 19.9957 25.232 18.1594 23.6342 16.8253Z" fill-opacity="0.8"/>
<path d="M23.0449 18.2366C22.0521 17.4833 20.9196 16.8555 17.693 16.8555H10.4022V17.8129C10.4022 17.8129 14.7302 17.7815 17.5689 17.8129C20.3147 17.8443 21.323 18.1582 22.2537 18.8487C23.4327 19.7277 24.1773 20.8263 24.1773 22.3487C24.1773 23.8241 23.4327 24.86 22.2382 25.7546C21.0282 26.6649 19.1667 26.6649 18.4066 26.6963C18.1274 26.6963 14.4199 26.6963 14.4199 26.6963V27.6537C14.4199 27.6537 16.2659 27.6851 17.3983 27.6537C20.0044 27.5909 21.5557 27.4339 22.9983 26.351C24.3479 25.3308 25.0615 23.9967 25.0615 22.3017C25.0615 20.0887 23.9601 18.9586 23.0449 18.2366Z" fill-opacity="0.8"/>
<path d="M11.9549 21.5024H18.7959V20.9688H11.9549V21.5024Z" fill-opacity="0.8"/>
<path d="M14.7772 23.3692H18.7484V22.9141H14.7772V23.3692Z" fill-opacity="0.8"/>
<path d="M8.77328 21.5024H10.7899V20.9688H8.77328V21.5024Z" fill-opacity="0.8"/>
<path d="M7.5018 23.4008H13.6602V22.8672H7.5018V23.4008Z" fill-opacity="0.8"/>
<path d="M9.02133 9.66993H11.4258V9.23047H9.02133V9.66993Z" fill-opacity="0.8"/>
<path d="M7.36313 13.2483H12.839V12.7461H7.36313V13.2483Z" fill-opacity="0.8"/>
<path d="M7.5018 27.5926H13.288V26.9648H7.5018V27.5926Z" fill-opacity="0.8"/>
<path d="M6.07407 29.6799H7.51673V28.7539H6.07407V29.6799Z" fill-opacity="0.8"/>
<path d="M9.67368 11.678H18.764V11.1758H9.67368V11.678Z" fill-opacity="0.8"/>
<path d="M14.2186 13.2483H18.5931V12.7461H14.2186V13.2483Z" fill-opacity="0.8"/>
<path d="M22.5644 19.605C21.8198 19.1498 21.1683 18.8359 18.0813 18.8359H13.1794V19.448H17.9882C20.7184 19.448 21.7578 19.9189 22.068 20.1072C22.673 20.4682 23.4952 21.0646 23.4952 22.2889C23.4952 23.0736 23.0298 24.0467 22.3317 24.4234C21.6957 24.7687 20.5323 25.0826 18.5002 25.0826H5.88852V25.6947H18.5157C20.9821 25.6947 21.8198 25.4279 22.6885 24.957C23.5572 24.4862 24.1312 23.5288 24.1312 22.2889C24.1467 20.9234 23.3556 20.1072 22.5644 19.605Z" fill-opacity="0.8"/>
<path d="M35.5012 18.2364V23.8395H38.5262C39.8292 23.8395 40.853 23.5884 41.5666 23.0861C42.2647 22.631 42.668 21.8462 42.6525 20.9987C42.6525 19.1624 41.1167 18.2364 38.0608 18.2364H35.5012ZM35.5012 11.566V16.5884H37.7816C39.007 16.5884 39.9533 16.3529 40.6514 15.8664C41.3339 15.4269 41.7372 14.6422 41.7062 13.826C41.7062 12.3193 40.4962 11.5503 38.0608 11.5503L35.5012 11.566ZM33.2674 25.4875V9.91797H38.6813C40.3256 9.91797 41.6286 10.2476 42.5904 10.9068C43.5522 11.566 44.0331 12.4292 44.0331 13.4807C44.0486 14.3283 43.7383 15.1601 43.1644 15.7879C42.5749 16.4471 41.7838 16.9023 40.7599 17.1848V17.2319C42.0475 17.3574 43.0713 17.7498 43.8314 18.4247C44.5915 19.0682 45.0104 20.0256 44.9793 21.0301C44.9793 22.3642 44.3899 23.4314 43.2264 24.2633C42.063 25.0951 40.5893 25.5032 38.8054 25.5032H33.2674V25.4875Z" fill-opacity="0.8"/>
<path d="M47.4617 25.488H49.6334V14.3759H47.4617V25.488ZM48.563 11.5351C48.2063 11.5507 47.8495 11.4252 47.5703 11.2055C47.3065 11.0171 47.1514 10.7032 47.1669 10.3893C47.1669 10.0597 47.3221 9.74581 47.5703 9.55747C47.8495 9.33774 48.2063 9.21218 48.563 9.22788C48.9353 9.21218 49.2921 9.33774 49.5714 9.55747C50.0212 9.88707 50.1143 10.5149 49.804 10.97C49.742 11.0642 49.6644 11.1427 49.5714 11.2055C49.2921 11.4409 48.9353 11.5507 48.563 11.5351Z" fill-opacity="0.8"/>
<path d="M59.2353 25.3803C58.7234 25.6157 58.0409 25.7256 57.2032 25.7256C54.8298 25.7256 53.6353 24.6426 53.6353 22.461V15.8848H51.3084V14.3624H53.6353V11.6471L55.8071 11.0664V14.3624H59.2198V15.8848H55.8071V22.1471C55.8071 22.8848 55.9622 23.4184 56.2724 23.748C56.5827 24.0776 57.0946 24.2189 57.8082 24.2189C58.3046 24.2346 58.801 24.109 59.2198 23.8422L59.2353 25.3803Z" fill-opacity="0.8"/>
<path d="M78.9838 25.4897H76.9517V15.8844C76.9672 14.9584 77.0137 14.0167 77.1223 13.0906H77.0758C76.9517 13.5615 76.7655 14.0324 76.5484 14.4718L70.5761 25.4741H69.5678L63.611 14.5503C63.3783 14.0794 63.2076 13.5929 63.0835 13.075H63.037C63.1146 14.001 63.1456 14.9427 63.1301 15.8844V25.4741H61.16V11.1602H63.8747L69.242 21.1422C69.5522 21.6915 69.8315 22.2723 70.0486 22.8687H70.1262C70.483 22.0839 70.7622 21.5032 70.9639 21.1108L76.4398 11.1602H78.9993V25.4897" fill-opacity="0.8"/>
<path d="M90.0281 19.8538L86.755 20.2305C85.7467 20.3403 84.9865 20.5444 84.4746 20.8426C83.9627 21.1408 83.699 21.6587 83.699 22.3964C83.699 22.93 83.9627 23.4322 84.4126 23.7305C84.878 24.0757 85.514 24.2484 86.3051 24.2484C87.391 24.2484 88.2752 23.9345 88.9733 23.3224C89.6558 22.7417 90.0436 21.8784 90.0281 20.9681V19.8538ZM92.1998 25.4883H90.0281V23.7461H89.9816C89.0353 25.0802 87.6392 25.7394 85.8087 25.7394C84.4591 25.7394 83.4043 25.4412 82.6286 24.8605C81.8841 24.3269 81.4652 23.4479 81.4807 22.5219C81.4807 20.4502 82.9699 19.2417 85.9638 18.8964L90.0281 18.4255C90.0281 16.5421 89.0973 15.6004 87.2359 15.6004C85.6536 15.5847 84.1178 16.0556 82.8148 16.9659V15.1453C84.1489 14.4547 85.6846 14.1094 87.422 14.1094C90.6176 14.1094 92.1998 15.4905 92.1998 18.2529V25.4883Z" fill-opacity="0.8"/>
<path d="M102.283 16.1642C101.895 15.9287 101.352 15.8032 100.638 15.8032C99.7385 15.7875 98.8853 16.1799 98.3113 16.8861C97.6908 17.6081 97.3806 18.5812 97.3806 19.8211V25.487H95.2088V14.3749H97.3806V16.6664H97.4271C97.7063 15.9287 98.2027 15.2852 98.8543 14.8301C99.4748 14.3906 100.219 14.1709 100.995 14.1709C101.429 14.1552 101.879 14.2023 102.298 14.3278L102.283 16.1642Z" fill-opacity="0.8"/>
<path d="M109.852 25.3803C109.341 25.6157 108.658 25.7256 107.82 25.7256C105.447 25.7256 104.252 24.6426 104.252 22.461V15.8848H101.926V14.3624H104.252V11.6471L106.424 11.0664V14.3624H109.837V15.8848H106.424V22.1471C106.424 22.8848 106.579 23.4184 106.89 23.748C107.2 24.0776 107.712 24.2189 108.425 24.2189C108.922 24.2346 109.418 24.109 109.837 23.8422L109.852 25.3803Z" fill-opacity="0.8"/>
</symbol><symbol viewBox="0 0 21 17" id="discord" xmlns="http://www.w3.org/2000/svg">
<path d="M17.7884 1.9585C16.4091 1.32674 14.953 0.878426 13.4572 0.625C13.2524 0.9912 13.067 1.36798 12.902 1.75375C11.308 1.51352 9.68699 1.51352 8.09299 1.75375C7.92829 1.36805 7.74341 0.991278 7.53912 0.625C6.04184 0.880645 4.58414 1.32978 3.20262 1.96112C0.460805 6.01675 -0.28207 9.97394 0.0893678 13.8734C1.69484 15.0599 3.49187 15.9625 5.40237 16.5417C5.8326 15.9627 6.21326 15.3484 6.54031 14.7055C5.91915 14.4734 5.31965 14.187 4.74874 13.8498C4.89968 13.7408 5.04668 13.6292 5.18843 13.5203C6.85015 14.3018 8.66383 14.7069 10.5001 14.7069C12.3364 14.7069 14.1501 14.3018 15.8118 13.5203C15.9562 13.6384 16.1032 13.75 16.2515 13.8498C15.6793 14.1879 15.0785 14.4751 14.456 14.7081C14.7828 15.35 15.1635 15.9629 15.5939 16.5404C17.5061 15.9642 19.3047 15.0629 20.9109 13.876C21.3466 9.35312 20.1654 5.43269 17.7884 1.9585ZM7.0128 11.4741C5.97593 11.4741 5.12018 10.5357 5.12018 9.37938C5.12018 8.22306 5.94706 7.27544 7.00887 7.27544C8.07068 7.27544 8.91987 8.22306 8.90149 9.37938C8.88312 10.5344 8.06674 11.4754 7.01149 11.4754L7.0128 11.4741ZM13.9887 11.4741C12.9519 11.4741 12.0987 10.5357 12.0987 9.37938C12.0987 8.22306 12.9256 7.27544 13.9887 7.27544C15.0519 7.27544 15.8945 8.22306 15.8761 9.37938C15.8577 10.5344 15.044 11.4754 13.9887 11.4754V11.4741Z"/>
</symbol><symbol viewBox="0 0 11 21" id="facebook" xmlns="http://www.w3.org/2000/svg">
<path d="M7.06012 12H9.56012L10.5601 8H7.06012V6C7.06012 4.97 7.06012 4 9.06012 4H10.5601V0.64C10.2341 0.597 9.00312 0.5 7.70312 0.5C4.98812 0.5 3.06012 2.157 3.06012 5.2V8H0.0601196V12H3.06012V20.5H7.06012V12Z"/>
</symbol><symbol viewBox="0 0 20 19" id="linkedIn" xmlns="http://www.w3.org/2000/svg">
<path d="M4.00012 2.50051C3.99986 3.03094 3.78889 3.53955 3.41363 3.91443C3.03837 4.28932 2.52956 4.49978 1.99912 4.49951C1.46869 4.49925 0.960087 4.28828 0.585202 3.91302C0.210316 3.53776 -0.000142896 3.02894 0.000122321 2.49851C0.000387537 1.96808 0.211356 1.45948 0.586616 1.08459C0.961876 0.709706 1.47069 0.499247 2.00112 0.499512C2.53156 0.499777 3.04016 0.710745 3.41504 1.08601C3.78993 1.46127 4.00039 1.97008 4.00012 2.50051ZM4.06012 5.98051H0.0601223V18.5005H4.06012V5.98051ZM10.3801 5.98051H6.40012V18.5005H10.3401V11.9305C10.3401 8.27051 15.1101 7.93051 15.1101 11.9305V18.5005H19.0601V10.5705C19.0601 4.40051 12.0001 4.63051 10.3401 7.66051L10.3801 5.98051Z"/>
</symbol><symbol viewBox="0 0 14 22" id="sabai-token" xmlns="http://www.w3.org/2000/svg">
<g clip-path="url(#gclip0_0_68)">
<path d="M8.49369 9.00098V10.5908C9.33308 10.8811 10.0784 11.4041 10.6475 12.1024C11.2167 12.8007 11.5876 13.6471 11.7195 14.5485C11.8514 15.4498 11.7391 16.3711 11.395 17.211C11.0509 18.0509 10.4884 18.7767 9.76933 19.3087C9.05026 19.8406 8.20257 20.158 7.31953 20.2259C6.4365 20.2937 5.55241 20.1095 4.76456 19.6934C3.97672 19.2773 3.31569 18.6455 2.85425 17.8675C2.39281 17.0895 2.14884 16.1956 2.14922 15.2841C2.14816 14.5239 2.31868 13.7739 2.64733 13.0932C2.70465 12.9768 2.73209 12.8472 2.72702 12.7167C2.72196 12.5863 2.68457 12.4593 2.61842 12.348C2.55226 12.2366 2.45952 12.1445 2.34904 12.0804C2.23855 12.0163 2.11396 11.9824 1.98714 11.9818C1.85147 11.9811 1.71828 12.019 1.6022 12.0913C1.48613 12.1636 1.39171 12.2675 1.32936 12.3915C0.747353 13.5918 0.541568 14.9484 0.740423 16.2741C0.939278 17.5998 1.53297 18.8293 2.43955 19.793C3.34613 20.7566 4.5209 21.4068 5.80175 21.6539C7.08261 21.901 8.40639 21.7327 9.59041 21.1724C10.7744 20.612 11.7603 19.6872 12.412 18.5256C13.0636 17.3639 13.349 16.0227 13.2286 14.6869C13.1083 13.3512 12.5882 12.0869 11.74 11.0684C10.8919 10.05 9.75763 9.32759 8.49369 9.00098Z"/>
<path d="M3.59321 5.27929C3.59237 4.77746 3.69574 4.28124 3.89643 3.82389C4.09711 3.36655 4.39046 2.95866 4.75681 2.62756C5.12316 2.29647 5.55403 2.04981 6.02055 1.90415C6.48707 1.75848 6.97846 1.71717 7.46176 1.78298C7.94506 1.84878 8.40913 2.02018 8.82282 2.28569C9.23651 2.5512 9.59026 2.90469 9.86038 3.32244C10.1305 3.7402 10.3108 4.21257 10.389 4.7079C10.4673 5.20322 10.4418 5.71006 10.3142 6.19441C10.2821 6.30866 10.2762 6.42903 10.297 6.54603C10.3178 6.66302 10.3647 6.77344 10.434 6.86859C10.5034 6.96374 10.5932 7.04102 10.6965 7.09432C10.7998 7.14763 10.9137 7.17551 11.0292 7.17576C11.1929 7.17477 11.3517 7.11821 11.481 7.01485C11.6103 6.9115 11.7028 6.76712 11.7443 6.60412C11.8909 6.05085 11.9441 5.47575 11.9016 4.90393C11.8344 3.99132 11.5273 3.11472 11.0132 2.36804C10.4991 1.62135 9.79732 1.03272 8.98306 0.665216C8.16881 0.297709 7.27275 0.165173 6.39091 0.281808C5.50907 0.398442 4.67466 0.759853 3.9771 1.32732C3.27955 1.89478 2.74511 2.64692 2.43107 3.50314C2.11702 4.35936 2.0352 5.2874 2.19436 6.18783C2.35353 7.08826 2.74769 7.92715 3.3346 8.61461C3.92151 9.30208 4.67907 9.81221 5.5261 10.0904V8.44415C4.94774 8.15666 4.4597 7.70735 4.11786 7.14763C3.77602 6.58792 3.59421 5.94043 3.59321 5.27929Z"/>
<path d="M9.53799 13.2731C9.19799 12.8268 8.75236 12.4779 8.24382 12.2598V12.0758C8.24355 11.9353 8.19586 11.7993 8.10891 11.691C8.02196 11.5827 7.90114 11.5088 7.76715 11.4821V7.15924C7.84383 7.15924 7.91977 7.14369 7.99061 7.11348C8.06146 7.08328 8.12582 7.039 8.18004 6.98318C8.23427 6.92737 8.27728 6.86111 8.30663 6.78818C8.33597 6.71526 8.35108 6.63709 8.35108 6.55816V5.95708H7.75763V5.27995H8.54173V4.7402C8.54174 4.56494 8.47428 4.39683 8.35411 4.27267C8.23394 4.14852 8.07088 4.07844 7.90063 4.07779H7.75763H6.66604C6.61471 4.07779 6.56389 4.08819 6.51647 4.10841C6.46905 4.12863 6.42598 4.15827 6.38968 4.19564C6.35339 4.233 6.32457 4.27735 6.30493 4.32617C6.28529 4.37498 6.2752 4.4273 6.2752 4.48014V11.487C6.14079 11.5129 6.01944 11.5864 5.93233 11.6949C5.84522 11.8034 5.79788 11.94 5.79853 12.0807V12.2819C5.12415 12.5766 4.56943 13.1022 4.22835 13.7697C3.88726 14.4371 3.78077 15.2054 3.92688 15.9444C4.07299 16.6834 4.4627 17.3477 5.03008 17.8249C5.59745 18.302 6.30761 18.5626 7.04024 18.5626C7.85204 18.5642 8.63318 18.2434 9.22101 17.6671C9.28258 17.6069 9.3312 17.5341 9.36377 17.4534C9.39635 17.3727 9.41214 17.2859 9.41012 17.1985C9.4081 17.1111 9.38832 17.0251 9.35205 16.9461C9.31578 16.8671 9.26382 16.7968 9.19954 16.7397V16.7274C9.08246 16.6254 8.93265 16.5718 8.77931 16.5773C8.62598 16.5827 8.48011 16.6467 8.37014 16.7569C8.09601 17.0204 7.75326 17.196 7.38375 17.2622C7.01425 17.3284 6.634 17.2824 6.28948 17.1298L8.8373 14.5047L9.52844 13.7956L9.59041 13.7319C9.6292 13.6593 9.645 13.5761 9.6356 13.4938C9.6262 13.4116 9.59207 13.3344 9.53799 13.2731ZM5.10019 15.0542C5.1521 14.6139 5.34377 14.2035 5.64544 13.8868C5.9471 13.57 6.34188 13.3647 6.76854 13.3025C7.17823 13.2419 7.596 13.3185 7.96021 13.5209L5.33853 16.2196C5.14318 15.866 5.05751 15.4594 5.09304 15.0542H5.10019Z"/>
</g>
<defs>
<clipPath id="gclip0_0_68">
<rect width="12.6667" height="21.5333" transform="translate(0.666702 0.233261)"/>
</clipPath>
</defs>
</symbol><symbol viewBox="0 0 21 19" id="twitter" xmlns="http://www.w3.org/2000/svg">
<path d="M6.6042 18.0319C14.5288 18.0319 18.8632 11.4664 18.8632 5.77289C18.8632 5.58641 18.8632 5.40077 18.8506 5.21597C19.6938 4.60606 20.4217 3.85087 21.0001 2.98577C20.2138 3.33438 19.3797 3.56288 18.5255 3.66365C19.425 3.12526 20.0981 2.27834 20.4197 1.28057C19.574 1.78248 18.6487 2.13617 17.6838 2.32637C17.0342 1.63563 16.175 1.17824 15.2393 1.02497C14.3035 0.871711 13.3434 1.03112 12.5073 1.47855C11.6713 1.92597 11.0061 2.63645 10.6145 3.50005C10.223 4.36366 10.127 5.33223 10.3414 6.25589C8.62841 6.16997 6.95266 5.7248 5.4229 4.94928C3.89313 4.17376 2.54354 3.08523 1.46172 1.75433C0.910759 2.70283 0.74201 3.82566 0.989834 4.8942C1.23766 5.96275 1.88342 6.89667 2.79564 7.50581C2.10995 7.48572 1.43919 7.30074 0.840122 6.96653V7.02113C0.840394 8.01588 1.18474 8.97991 1.81476 9.74971C2.44478 10.5195 3.32168 11.0477 4.29672 11.2447C3.66242 11.4177 2.99689 11.443 2.35128 11.3186C2.62671 12.1746 3.16275 12.9232 3.88446 13.4596C4.60617 13.9961 5.47747 14.2936 6.37656 14.3107C5.48326 15.0128 4.46027 15.532 3.36614 15.8384C2.272 16.1448 1.12818 16.2325 0.00012207 16.0965C1.97048 17.3609 4.26306 18.0316 6.6042 18.0285"/>
</symbol><symbol viewBox="0 0 132 29" id="uniswap" xmlns="http://www.w3.org/2000/svg">
<path fill-rule="evenodd" clip-rule="evenodd" d="M0.557672 -0.0871391C3.85146 3.95505 7.46796 9.03327 8.05291 9.85464C8.0841 9.89843 8.10667 9.93013 8.12011 9.94891C8.43193 10.3847 8.68935 10.7087 8.88484 10.9547C9.31882 11.5008 9.4476 11.6629 9.18865 11.8117C8.97978 11.9318 8.7643 11.9714 8.5493 11.9714C8.30611 11.9714 8.03212 11.8529 7.83263 11.6616C7.69162 11.5264 6.72674 10.1094 5.41286 8.04811C4.40758 6.47085 3.56627 5.16244 3.54331 5.14053C3.49025 5.08986 3.49116 5.09158 5.31037 8.38284C6.45267 10.4495 7.23405 11.9768 7.23405 12.0745C7.23405 12.2732 7.18041 12.3777 6.93794 12.6512C6.53372 13.1072 6.35302 13.6195 6.22258 14.6798C6.07635 15.8683 5.66516 16.7081 4.52562 18.1449C3.85857 18.9862 3.74943 19.1403 3.58111 19.4794C3.36912 19.9063 3.31081 20.1454 3.28718 20.6846C3.26221 21.2546 3.31085 21.6229 3.48308 22.1678C3.63387 22.6449 3.79126 22.96 4.19362 23.5902C4.54085 24.1339 4.74079 24.538 4.74079 24.6961C4.74079 24.8219 4.76454 24.8221 5.30261 24.6993C6.59027 24.4052 7.63585 23.8882 8.2239 23.2544C8.58784 22.8621 8.67329 22.6456 8.67605 22.1081C8.67788 21.7565 8.66564 21.6829 8.57166 21.4807C8.41866 21.1514 8.14013 20.8777 7.52624 20.4534C6.72186 19.8974 6.37831 19.4498 6.28341 18.8342C6.20557 18.3292 6.29588 17.9728 6.74086 17.0298C7.20143 16.0537 7.31557 15.6378 7.39278 14.6538C7.44264 14.0181 7.51171 13.7675 7.69233 13.5663C7.88071 13.3565 8.0503 13.2854 8.51649 13.2209C9.27654 13.116 9.7605 12.9172 10.1583 12.5465C10.5034 12.225 10.6478 11.9151 10.67 11.4487L10.6868 11.0952L10.494 10.8678C9.79557 10.0445 0.0899671 -0.734375 0.0469882 -0.734375C0.0378067 -0.734375 0.267624 -0.443099 0.557672 -0.0871391ZM5.13283 21.3296C5.29074 21.0467 5.20684 20.6833 4.94271 20.5057C4.69314 20.3379 4.30547 20.417 4.30547 20.6356C4.30547 20.7023 4.34195 20.7508 4.4242 20.7937C4.56267 20.8658 4.57272 20.9468 4.46377 21.1123C4.35343 21.2801 4.36233 21.4275 4.48889 21.5276C4.69287 21.6891 4.9816 21.6003 5.13283 21.3296ZM9.8856 5.91024C9.57402 5.86138 9.56089 5.85564 9.70751 5.83286C9.9885 5.78916 10.652 5.84871 11.1092 5.95864C12.1766 6.21518 13.1478 6.87237 14.1846 8.03956L14.46 8.34963L14.8541 8.28558C16.514 8.01585 18.2027 8.23021 19.6151 8.88995C20.0037 9.07147 20.6163 9.43276 20.6928 9.5256C20.7171 9.55519 20.7621 9.74567 20.7923 9.94891C20.8972 10.6521 20.8448 11.1911 20.632 11.5936C20.5163 11.8127 20.5099 11.8821 20.5876 12.0696C20.6497 12.2192 20.8229 12.3299 20.9945 12.3297C21.3454 12.3292 21.7231 11.7555 21.8983 10.9572L21.9678 10.6401L22.1055 10.7979C22.861 11.6634 23.4545 12.8438 23.5565 13.684L23.583 13.9031L23.456 13.704C23.2374 13.3613 23.0179 13.128 22.7366 12.9398C22.2297 12.6007 21.6936 12.4852 20.2742 12.4096C18.9921 12.3413 18.2666 12.2306 17.5471 11.9933C16.3228 11.5898 15.7058 11.0523 14.2516 9.12328C13.6058 8.26646 13.2066 7.7924 12.8095 7.41063C11.9072 6.54318 11.0205 6.08825 9.8856 5.91024ZM20.982 7.82331C21.0142 7.24916 21.0913 6.87046 21.2461 6.52462C21.3074 6.38773 21.3648 6.27568 21.3736 6.27568C21.3825 6.27568 21.3559 6.37673 21.3144 6.5002C21.2019 6.83585 21.1833 7.29492 21.2609 7.82904C21.3593 8.50675 21.4153 8.60454 22.1237 9.33661C22.4559 9.67999 22.8425 10.1131 22.9826 10.299L23.2374 10.6371L22.9826 10.3955C22.671 10.1 21.9546 9.52377 21.7964 9.4414C21.6902 9.38616 21.6744 9.38711 21.609 9.45299C21.5487 9.51369 21.5359 9.6049 21.5276 10.0361C21.5145 10.7082 21.424 11.1395 21.2053 11.5708C21.087 11.8041 21.0684 11.7543 21.1754 11.491C21.2553 11.2944 21.2634 11.208 21.2629 10.5574C21.2616 9.25022 21.1081 8.93596 20.208 8.39762C19.9801 8.26125 19.6043 8.06457 19.3731 7.96052C19.1421 7.85649 18.9584 7.76588 18.965 7.75911C18.9906 7.73345 19.8684 7.99252 20.2217 8.12992C20.7472 8.33433 20.8339 8.36082 20.8978 8.33616C20.9405 8.31963 20.9612 8.19365 20.982 7.82331ZM9.55166 6.81977C9.46694 7.82897 9.8583 9.17901 10.4908 10.0595C10.9812 10.7421 11.7413 11.2725 12.3024 11.3237C12.6698 11.3573 12.7802 11.241 12.614 10.9955C12.3832 10.6547 12.0994 10.13 12.0243 9.90538C11.9776 9.76581 11.8762 9.35357 11.799 8.9893C11.5351 7.74561 11.2758 7.26128 10.6767 6.89341C10.4584 6.75933 9.99222 6.58388 9.72185 6.53403L9.57787 6.50745L9.55166 6.81977ZM20.2148 16.6128C17.2588 15.4094 16.2176 14.3648 16.2176 12.6023C16.2176 12.3429 16.2265 12.1307 16.2373 12.1307C16.2481 12.1307 16.3624 12.2163 16.4914 12.3209C17.0908 12.807 17.762 13.0147 19.6203 13.2887C20.7137 13.4501 21.3291 13.5803 21.8968 13.7708C23.701 14.3758 24.8172 15.6035 25.0834 17.2759C25.1608 17.7619 25.1155 18.6731 24.99 19.1534C24.891 19.5327 24.5888 20.2164 24.5087 20.2426C24.4865 20.2499 24.4647 20.1638 24.459 20.0467C24.4287 19.4187 24.1148 18.8074 23.5878 18.3494C22.9885 17.8287 22.1833 17.4143 20.2148 16.6128ZM17.9968 16.4804C18.0383 16.6053 18.1026 16.8898 18.1395 17.1127C18.3763 18.5375 17.6366 19.6886 16.1978 20.1347C16.0455 20.1819 15.4455 20.3007 14.8645 20.3984C13.6884 20.5964 13.1634 20.7367 12.6361 20.9935C12.2621 21.1757 11.8093 21.4485 11.8362 21.4756C11.8449 21.4844 11.9303 21.4638 12.0259 21.4298C12.6909 21.1937 13.431 21.0715 14.5555 21.0124C15.0017 20.989 15.5093 20.9516 15.6834 20.9294C16.6852 20.8018 17.3795 20.4941 17.9195 19.9385C18.2199 19.6292 18.399 19.3412 18.5433 18.935C18.6348 18.6773 18.6472 18.5816 18.6479 18.1251C18.6487 17.66 18.6376 17.5749 18.5384 17.2887C18.4086 16.9136 18.2554 16.6322 18.0615 16.412L17.9214 16.2531L17.9968 16.4804ZM19.4947 19.5461C19.1018 18.6923 19.0117 17.8681 19.2268 17.0995C19.2499 17.0173 19.2868 16.9501 19.3092 16.9501C19.3315 16.9501 19.4241 17.0008 19.5151 17.0627C19.696 17.1859 20.0591 17.3934 21.0261 17.9264C22.2329 18.5917 22.9209 19.1067 23.3887 19.6954C23.7985 20.2107 24.052 20.7977 24.174 21.5135C24.2432 21.919 24.2027 22.8947 24.0998 23.303C23.7754 24.5904 23.0213 25.6016 21.9458 26.1917C21.7883 26.2781 21.6468 26.349 21.6314 26.3494C21.6161 26.3497 21.6736 26.2022 21.759 26.0213C22.1208 25.2566 22.162 24.5127 21.8885 23.6848C21.721 23.1778 21.3795 22.5592 20.69 21.5137C19.8883 20.2982 19.6918 19.9746 19.4947 19.5461ZM12.0967 22.3461C10.8534 22.5503 9.48855 23.2155 8.39159 24.152L8.06501 24.4309L8.35201 24.4763C9.84975 24.7126 10.2531 24.9223 11.292 26.0044C11.8898 26.627 12.0917 26.7656 12.5876 26.8936C13.316 27.0816 14.0339 26.7362 14.2802 26.0792C14.3902 25.7857 14.3755 25.2996 14.2493 25.0555C13.949 24.4743 13.0742 24.2865 12.6512 24.7122C12.2989 25.0668 12.4015 25.601 12.8398 25.6929C12.9401 25.714 12.9372 25.7095 12.8142 25.6533C12.6224 25.5655 12.5391 25.444 12.538 25.2505C12.5356 24.7969 13.0489 24.5423 13.5265 24.7601C13.8762 24.9197 14.0151 25.1281 14.0151 25.4936C14.0151 26.0564 13.5414 26.4805 12.9901 26.4112C12.6954 26.374 12.335 26.1835 12.1418 25.9626C11.6556 25.4067 11.845 24.5295 12.5239 24.1929C13.0407 23.9367 13.7277 23.9998 14.2604 24.3525C14.8725 24.7579 15.1328 25.1283 15.6599 26.3441C15.8316 26.7399 16.0525 27.1856 16.1507 27.3343C16.6501 28.0902 17.2485 28.4609 17.9692 28.4609C18.3667 28.4609 18.6657 28.3874 19.0419 28.1976C19.3215 28.0563 19.7177 27.7881 19.6892 27.7593C19.6811 27.7512 19.5651 27.7877 19.4315 27.8403C18.6446 28.1507 17.8446 28.1294 17.3801 27.7855C17.0875 27.569 16.8515 27.1378 16.7302 26.5986C16.7092 26.5052 16.64 26.093 16.5762 25.6824C16.4147 24.6418 16.2596 24.174 15.898 23.6372C15.5279 23.0881 14.8166 22.6272 14.0213 22.4213C13.5251 22.2929 12.6325 22.258 12.0967 22.3461ZM10.3554 14.3006C10.4628 13.8996 10.8096 13.5172 11.1665 13.4064C11.3933 13.336 11.8623 13.381 12.0828 13.4943C12.5102 13.714 12.8204 14.2144 12.7531 14.5756C12.671 15.016 11.9646 15.3684 11.152 15.3742C10.737 15.3771 10.5837 15.3207 10.4252 15.1067C10.3271 14.9742 10.2899 14.5452 10.3554 14.3006ZM11.9737 13.6513C12.1868 13.7829 12.2416 13.9774 12.1164 14.1574C12.03 14.2815 11.7628 14.3993 11.5676 14.3993C11.2742 14.3993 10.9541 14.1886 10.9541 13.9957C10.9541 13.6081 11.5679 13.4006 11.9737 13.6513ZM75.6661 14.7612C75.0032 12.554 76.0964 10.7231 78.429 10.1348C79.098 9.966 82.1271 10.0422 82.646 10.2409C82.8367 10.3138 82.9196 10.5933 82.9214 11.1678C82.9227 11.6202 82.972 12.1697 83.0308 12.3889C83.12 12.721 83.0679 12.7864 82.7177 12.7811C82.401 12.7761 82.2095 12.5903 81.9421 12.0282C81.515 11.1304 80.9979 10.8448 79.7928 10.8415C78.2544 10.8371 77.1288 11.8739 77.312 13.1267C77.4314 13.942 78.2451 14.7441 80.0711 15.8469C81.8086 16.8959 82.8227 17.7586 83.2266 18.5314C84.3071 20.5978 83.3845 22.8091 80.9773 23.9232C79.7416 24.4951 77.6707 24.5542 76.2147 24.0592L75.2823 23.7421V22.2508C75.2823 20.9002 75.3145 20.7592 75.622 20.7592C75.8793 20.7592 75.9904 20.9294 76.0806 21.4627C76.3054 22.7886 77.3119 23.5935 78.7455 23.5935C80.1498 23.5935 81.1315 22.8254 81.5076 21.4327C81.6678 20.8394 81.6402 20.6206 81.3225 19.9661C80.9417 19.1814 80.2861 18.6607 78.0594 17.3748C76.8239 16.6612 75.9501 15.7071 75.6661 14.7612ZM32.0168 11.016C31.713 11.016 31.5944 10.9166 31.5944 10.6617C31.5944 10.3242 31.713 10.3074 34.0938 10.3074C36.3036 10.3074 36.5864 10.3407 36.5357 10.5945C36.504 10.7525 36.1986 10.9717 35.8568 11.0817L35.2351 11.2817L35.1821 15.799C35.1465 18.8133 35.1965 20.5521 35.3321 21.0249C35.7352 22.4308 36.965 23.2393 38.7001 23.2393C39.908 23.2393 40.6136 22.9566 41.5001 22.117C42.4536 21.2145 42.6057 20.3569 42.6026 15.8997C42.5998 11.5032 42.5232 11.1403 41.58 11.0491C41.1508 11.0075 41.007 10.9074 41.007 10.6505C41.007 10.3302 41.1486 10.3074 43.1381 10.3074C45.1507 10.3074 45.2691 10.327 45.2691 10.6617C45.2691 10.8799 45.1498 11.017 44.9583 11.0186C44.1358 11.0259 44.1207 11.1042 44.01 15.9251C43.8952 20.9315 43.7879 21.5243 42.7743 22.7506C42.482 23.1044 41.7849 23.6181 41.2254 23.8923C40.3134 24.339 40.0233 24.3903 38.4318 24.3874C36.9647 24.3844 36.5015 24.3135 35.7679 23.9792C34.6971 23.4912 34.0007 22.8597 33.4872 21.9106C33.1289 21.2482 33.0982 20.8897 33.0153 16.4013C32.9202 11.2636 32.8742 11.016 32.0168 11.016ZM48.6351 11.016C48.2291 11.016 48.1106 10.9359 48.1106 10.6617C48.1106 10.3295 48.2241 10.3083 49.9309 10.3219L51.7513 10.3364L52.6223 11.3405C53.101 11.8927 54.6619 13.6201 56.0905 15.1789C57.5193 16.7379 59.1596 18.5514 59.7356 19.209C60.3117 19.8668 60.8538 20.4049 60.9405 20.4049C61.0295 20.4049 61.0738 18.547 61.0421 16.1377L60.9861 11.8705L60.4877 11.4433C60.2137 11.2082 59.7944 11.016 59.5555 11.016C59.2378 11.016 59.1215 10.9196 59.1215 10.6567C59.1215 10.3107 59.2121 10.2992 61.5633 10.3467C63.5625 10.3871 64.0052 10.4429 64.0052 10.6544C64.0052 10.8052 63.7579 10.9634 63.4115 11.034C63.0852 11.1007 62.7254 11.2473 62.6124 11.36C62.4665 11.5054 62.3922 13.3859 62.3561 17.8449L62.3051 24.1249H61.7904C61.3473 24.1249 60.8199 23.6258 57.9999 20.5377C56.1982 18.5646 54.0952 16.2197 53.3265 15.3267C52.5577 14.4337 51.8689 13.6963 51.7957 13.6881C51.5895 13.665 51.6393 21.6436 51.8502 22.401C52.0146 22.9911 52.1277 23.0927 52.8261 23.2792C53.3886 23.4292 53.6161 23.5814 53.6161 23.8075C53.6161 24.0977 53.4016 24.1249 51.1298 24.1249C48.8171 24.1249 48.6435 24.1018 48.6435 23.7929C48.6435 23.5667 48.8108 23.4274 49.1682 23.356C50.2526 23.1398 50.3246 22.7964 50.3854 17.548C50.4195 14.6086 50.3695 12.5519 50.2531 12.1212C50.0488 11.3639 49.5394 11.016 48.6351 11.016ZM67.2568 11.016C66.8763 11.016 66.758 10.9318 66.758 10.6617C66.758 10.3231 66.8763 10.3074 69.4218 10.3074C71.9672 10.3074 72.0858 10.3231 72.0858 10.6617C72.0858 10.9216 71.9672 11.016 71.6417 11.016C71.3976 11.016 71.0347 11.1786 70.8354 11.3774C70.4836 11.7283 70.4746 11.9028 70.5247 17.3264C70.5735 22.6208 70.5943 22.9272 70.9208 23.1652C71.1105 23.3034 71.4501 23.4164 71.6756 23.4164C71.9672 23.4164 72.0858 23.5186 72.0858 23.7707C72.0858 24.1093 71.9672 24.1249 69.4218 24.1249C66.9369 24.1249 66.758 24.1027 66.758 23.7934C66.758 23.544 66.9323 23.4339 67.4615 23.3494C68.5124 23.1818 68.5661 22.8386 68.5006 16.7145C68.4483 11.8101 68.4257 11.5044 68.1003 11.2672C67.9107 11.129 67.5311 11.016 67.2568 11.016ZM85.8389 11.016C85.5959 11.016 85.4112 10.8812 85.3536 10.6617C85.2641 10.3191 85.3484 10.3074 87.9082 10.3074C90.4369 10.3074 90.5553 10.3231 90.5553 10.6617C90.5553 10.9339 90.4369 11.016 90.0442 11.016C88.9263 11.016 88.9514 11.2186 90.6435 15.8514C91.5046 18.2097 92.341 20.4498 92.5017 20.8295L92.7938 21.5199L94.1502 17.9065C95.747 13.6532 95.9544 12.8666 95.6833 12.0909C95.4943 11.5502 94.7594 11.016 94.2049 11.016C94.0482 11.016 93.9296 10.8636 93.9296 10.6617C93.9296 10.3226 94.0482 10.3074 96.6824 10.3074C99.3166 10.3074 99.435 10.3226 99.435 10.6617C99.435 10.9138 99.3166 11.016 99.025 11.016C98.2783 11.016 97.9491 11.4131 98.0564 12.1848C98.1668 12.9791 101.221 21.5164 101.349 21.3887C101.558 21.1809 104.94 11.9905 104.94 11.6323C104.94 11.203 104.639 11.016 103.949 11.016C103.638 11.016 103.52 10.9184 103.52 10.6617C103.52 10.327 103.638 10.3074 105.651 10.3074C107.458 10.3074 107.782 10.3492 107.782 10.5823C107.782 10.7336 107.561 10.9343 107.29 11.0284C106.681 11.2401 106.528 11.4817 105.764 13.439C105.429 14.2985 104.38 16.9886 103.432 19.4165C102.484 21.8448 101.668 23.9374 101.619 24.0668C101.569 24.1963 101.275 24.3022 100.966 24.3022H100.404L99.1282 20.9806C98.4264 19.1539 97.5975 16.9897 97.2862 16.1713C96.7524 14.7689 96.7077 14.708 96.5068 15.1082C96.3897 15.3421 95.5469 17.5102 94.6336 19.9264L92.9735 24.3195L92.3539 24.2666L91.7342 24.2136L89.371 18.0272C88.0508 14.5709 86.8366 11.6587 86.6196 11.4284C86.4059 11.2015 86.0547 11.016 85.8389 11.016ZM121.349 11.0911C121.319 11.0238 121.319 10.782 121.319 10.782C121.319 10.782 121.313 10.6947 121.349 10.6482C121.386 10.6018 121.399 10.6006 121.529 10.5882L121.53 10.588C122.01 10.5424 122.972 10.4656 123.775 10.4305C123.848 10.4273 123.93 10.4236 124.019 10.4195L124.021 10.4194L124.022 10.4194C124.905 10.3793 126.487 10.3255 127.574 10.3799C129.659 10.4842 131.142 11.4931 131.647 13.1604C132.153 14.8276 131.886 16.3926 131.197 17.3888C130.508 18.385 129.349 19.2427 127.424 19.1869C125.834 19.1408 125.409 18.8429 125.069 18.6049C124.997 18.5545 124.929 18.5068 124.855 18.4649V20.5911C124.872 22.0411 124.884 22.7376 124.996 22.9954C125.147 23.3424 125.489 23.5562 126.155 23.7201C126.155 23.7201 126.456 23.7908 126.533 23.8662C126.611 23.9415 126.611 24.1089 126.611 24.1089C126.611 24.1089 126.627 24.2653 126.565 24.3451C126.502 24.4248 126.382 24.4089 126.382 24.4089L123.434 24.3851L121.657 24.3804C121.657 24.3804 121.47 24.4162 121.4 24.3411C121.33 24.2659 121.337 24.1093 121.337 24.1093C121.337 24.1093 121.352 23.9406 121.434 23.8651C121.515 23.7894 121.819 23.705 121.819 23.705C122.504 23.5124 122.801 23.3086 122.957 22.9247C123.082 22.6152 123.083 22.0413 123.081 17.3576C123.08 12.9159 123.074 12.0874 122.972 11.8491C122.821 11.4964 122.444 11.4029 121.908 11.2699C121.801 11.2435 121.688 11.2155 121.57 11.1837C121.57 11.1837 121.379 11.1584 121.349 11.0911ZM129.932 14.7154C129.932 15.4437 129.919 16.584 129.145 17.3129C128.37 18.0418 126.845 18.2413 125.81 18.0384C125.483 17.9744 125.297 17.8758 125.153 17.7998L125.138 17.7922L124.874 17.6525L124.858 15.0935C124.849 13.4901 124.865 12.4455 124.903 12.2962C124.938 11.4507 126.183 11.3455 126.792 11.3768C129.396 11.3768 129.856 13.5733 129.932 14.7154ZM113.171 10.4066C113.171 10.4066 113.044 10.4555 112.851 10.5286L112.156 10.8882L111.655 12.1395C111.38 12.8277 110.876 14.0912 110.536 14.9471C109.916 16.5061 109.507 17.5303 109.076 18.5994C108.949 18.9138 108.567 19.8714 108.226 20.7273C107.885 21.5831 107.545 22.3977 107.469 22.5374C107.456 22.5606 107.443 22.5856 107.429 22.612C107.239 22.9706 106.907 23.5935 106.323 23.6877C106.323 23.6877 106.001 23.7193 105.882 23.837C105.763 23.9549 105.775 24.0511 105.775 24.0511V24.1995C105.775 24.1995 105.785 24.2714 105.853 24.3071C105.92 24.343 106.012 24.3451 106.012 24.3451L108.15 24.3207H110.361C110.361 24.3207 110.517 24.339 110.578 24.289C110.638 24.2389 110.655 24.1647 110.655 24.1647V24.0085C110.655 24.0085 110.624 23.8391 110.536 23.7729C110.449 23.7069 110.121 23.6617 110.121 23.6617C109.236 23.5452 109.083 22.8752 109.193 22.2727C109.246 21.9766 109.602 20.8816 110.002 19.7791L110.141 19.3981L112.457 19.3804C113.731 19.3706 114.831 19.3772 114.902 19.3951C115.002 19.4205 115.143 19.7067 115.556 20.7258C116.182 22.2699 116.232 22.458 116.094 22.7469C116.085 22.7645 116.076 22.7839 116.067 22.8048C115.937 23.0842 115.684 23.6271 115.047 23.6823C115.047 23.6823 114.71 23.694 114.626 23.7951C114.542 23.8963 114.56 24.0126 114.56 24.0126V24.1672C114.56 24.1672 114.582 24.2578 114.626 24.2937C114.669 24.3295 114.742 24.3205 114.742 24.3205L116.845 24.3053L119.801 24.3052C119.801 24.3052 119.916 24.3176 119.948 24.273C119.979 24.2283 119.986 24.1758 119.986 24.1758V23.9705C119.986 23.9705 119.973 23.8614 119.916 23.8011C119.86 23.741 119.476 23.6775 119.476 23.6775C118.987 23.5985 118.743 23.1939 118.561 22.8927C118.515 22.8158 118.473 22.7457 118.431 22.6894C118.347 22.5746 118.047 21.9454 117.811 21.3403C117.576 20.7352 117.045 19.3681 116.631 18.3026C116.218 17.2372 115.64 15.7508 115.349 14.9998C115.057 14.2486 114.502 12.8194 114.116 11.8238C114.053 11.6603 113.996 11.5136 113.945 11.3822C113.686 10.7135 113.581 10.4431 113.553 10.4066C113.46 10.288 113.171 10.4066 113.171 10.4066ZM113.034 14.4753C112.941 14.2483 112.776 13.841 112.669 13.5703C112.474 13.0782 112.4 12.9648 112.339 13.0665C112.322 13.0962 112.199 13.4325 112.067 13.814C111.21 16.2835 110.821 17.3954 110.743 17.605C110.695 17.7367 110.655 17.8724 110.655 17.9066C110.655 17.946 111.352 17.9689 112.546 17.9689C113.587 17.9689 114.438 17.956 114.438 17.9402C114.438 17.9244 114.345 17.6887 114.232 17.4162C114.118 17.1437 113.84 16.4634 113.615 15.9045C113.389 15.3456 113.127 14.7025 113.034 14.4753Z" fill-opacity="0.8"/>
</symbol><symbol viewBox="0 0 22 22" id="usdt" xmlns="http://www.w3.org/2000/svg">
<path d="M4.37659 3.31189L16.8651 3.31193V6.4208L4.37659 6.42076V3.31189ZM12.0001 12.1422V19H9.06721V12.1422H12.0001Z"/>
<path d="M10.6829 7.7442C5.90205 7.7442 2.03555 8.69776 2.03555 9.86033C2.03555 11.0229 5.91511 11.9765 10.6829 11.9765C15.4507 11.9765 19.3303 11.0229 19.3303 9.86033C19.3303 8.69776 15.4507 7.7442 10.6829 7.7442ZM10.6829 11.0098C6.2678 11.0098 2.68868 10.3567 2.68868 9.54683C2.68868 8.73695 6.2678 8.08383 10.6829 8.08383C15.0981 8.08383 18.6772 8.73695 18.6772 9.54683C18.6772 10.3567 15.0981 11.0098 10.6829 11.0098Z"/>
<path d="M10.5001 10.5001C11.0201 10.5001 11.5201 10.4904 12.0001 10.4614V6.50011H9.00012V10.4614C9.48012 10.4807 9.98012 10.5001 10.5001 10.5001Z"/>
</symbol><symbol viewBox="0 0 25 17" id="you-tube" xmlns="http://www.w3.org/2000/svg">
<path d="M12.6366 0.0708008H12.7701C14.0031 0.0753008 20.2506 0.120301 21.9351 0.573301C22.4444 0.711554 22.9084 0.981035 23.2809 1.35481C23.6533 1.72859 23.9212 2.19358 24.0576 2.7033C24.2091 3.2733 24.3156 4.0278 24.3876 4.8063L24.4026 4.9623L24.4356 5.3523L24.4476 5.5083C24.5451 6.8793 24.5571 8.1633 24.5586 8.4438V8.5563C24.5571 8.8473 24.5436 10.2183 24.4356 11.6463L24.4236 11.8038L24.4101 11.9598C24.3351 12.8178 24.2241 13.6698 24.0576 14.2968C23.9216 14.8067 23.6539 15.2719 23.2813 15.6458C22.9088 16.0196 22.4446 16.289 21.9351 16.4268C20.1951 16.8948 13.5816 16.9278 12.6651 16.9293H12.4521C11.9886 16.9293 10.0716 16.9203 8.06162 16.8513L7.80662 16.8423L7.67612 16.8363L7.41962 16.8258L7.16312 16.8153C5.49812 16.7418 3.91262 16.6233 3.18212 16.4253C2.67285 16.2876 2.20872 16.0185 1.83621 15.6449C1.46369 15.2713 1.19589 14.8065 1.05962 14.2968C0.89312 13.6713 0.78212 12.8178 0.70712 11.9598L0.69512 11.8023L0.68312 11.6463C0.609091 10.6299 0.568069 9.61136 0.56012 8.5923L0.56012 8.4078C0.56312 8.0853 0.57512 6.9708 0.65612 5.7408L0.66662 5.5863L0.67112 5.5083L0.68312 5.3523L0.71612 4.9623L0.73112 4.8063C0.80312 4.0278 0.90962 3.2718 1.06112 2.7033C1.19716 2.19337 1.46486 1.72817 1.83739 1.35432C2.20992 0.980482 2.67417 0.711139 3.18362 0.573301C3.91412 0.378301 5.49962 0.258301 7.16462 0.183301L7.41962 0.172801L7.67762 0.163801L7.80662 0.159301L8.06312 0.148801C9.49068 0.102863 10.9188 0.0773601 12.3471 0.0723009H12.6366V0.0708008ZM10.1601 4.8858V12.1128L16.3956 8.5008L10.1601 4.8858Z"/>
</symbol></svg>