<svg width="24" height="24" viewBox="0 0 24 24" fill="none" xmlns="http://www.w3.org/2000/svg">
<path d="M16.7176 20.3128C16.8078 20.4082 16.8783 20.5205 16.9251 20.6433C16.9719 20.766 16.9941 20.8967 16.9904 21.028C16.9867 21.1593 16.9572 21.2886 16.9035 21.4085C16.8498 21.5284 16.773 21.6365 16.6776 21.7268C16.5821 21.817 16.4698 21.8875 16.3471 21.9343C16.2243 21.9811 16.0936 22.0033 15.9623 21.9996C15.831 21.9959 15.7017 21.9663 15.5818 21.9127C15.4619 21.859 15.3538 21.7822 15.2636 21.6868L6.76357 12.6868C6.58803 12.5011 6.49022 12.2553 6.49022 11.9998C6.49022 11.7442 6.58803 11.4984 6.76357 11.3128L15.2636 2.31175C15.3532 2.21419 15.4613 2.13541 15.5816 2.07998C15.702 2.02456 15.8321 1.9936 15.9645 1.98889C16.0969 1.98419 16.2289 2.00584 16.3529 2.05258C16.4768 2.09933 16.5902 2.17024 16.6866 2.26119C16.7829 2.35215 16.8602 2.46133 16.9139 2.58241C16.9677 2.70349 16.9969 2.83404 16.9998 2.96649C17.0026 3.09893 16.9792 3.23063 16.9307 3.35394C16.8823 3.47724 16.8098 3.58969 16.7176 3.68475L8.86557 11.9998L16.7176 20.3128Z" fill="#258BF4"/>
</svg>
