<svg width="21" height="17" viewBox="0 0 21 17" fill="none" xmlns="http://www.w3.org/2000/svg">
<path d="M17.7884 1.9585C16.4091 1.32674 14.953 0.878426 13.4572 0.625C13.2524 0.9912 13.067 1.36798 12.902 1.75375C11.308 1.51352 9.68699 1.51352 8.09299 1.75375C7.92829 1.36805 7.74341 0.991278 7.53912 0.625C6.04184 0.880645 4.58414 1.32978 3.20262 1.96112C0.460805 6.01675 -0.28207 9.97394 0.0893678 13.8734C1.69484 15.0599 3.49187 15.9625 5.40237 16.5417C5.8326 15.9627 6.21326 15.3484 6.54031 14.7055C5.91915 14.4734 5.31965 14.187 4.74874 13.8498C4.89968 13.7408 5.04668 13.6292 5.18843 13.5203C6.85015 14.3018 8.66383 14.7069 10.5001 14.7069C12.3364 14.7069 14.1501 14.3018 15.8118 13.5203C15.9562 13.6384 16.1032 13.75 16.2515 13.8498C15.6793 14.1879 15.0785 14.4751 14.456 14.7081C14.7828 15.35 15.1635 15.9629 15.5939 16.5404C17.5061 15.9642 19.3047 15.0629 20.9109 13.876C21.3466 9.35312 20.1654 5.43269 17.7884 1.9585ZM7.0128 11.4741C5.97593 11.4741 5.12018 10.5357 5.12018 9.37938C5.12018 8.22306 5.94706 7.27544 7.00887 7.27544C8.07068 7.27544 8.91987 8.22306 8.90149 9.37938C8.88312 10.5344 8.06674 11.4754 7.01149 11.4754L7.0128 11.4741ZM13.9887 11.4741C12.9519 11.4741 12.0987 10.5357 12.0987 9.37938C12.0987 8.22306 12.9256 7.27544 13.9887 7.27544C15.0519 7.27544 15.8945 8.22306 15.8761 9.37938C15.8577 10.5344 15.044 11.4754 13.9887 11.4754V11.4741Z" fill="#258BF4"/>
</svg>
