<svg width="20" height="19" viewBox="0 0 20 19" fill="none" xmlns="http://www.w3.org/2000/svg">
<path d="M4.00012 2.50051C3.99986 3.03094 3.78889 3.53955 3.41363 3.91443C3.03837 4.28932 2.52956 4.49978 1.99912 4.49951C1.46869 4.49925 0.960087 4.28828 0.585202 3.91302C0.210316 3.53776 -0.000142896 3.02894 0.000122321 2.49851C0.000387537 1.96808 0.211356 1.45948 0.586616 1.08459C0.961876 0.709706 1.47069 0.499247 2.00112 0.499512C2.53156 0.499777 3.04016 0.710745 3.41504 1.08601C3.78993 1.46127 4.00039 1.97008 4.00012 2.50051ZM4.06012 5.98051H0.0601223V18.5005H4.06012V5.98051ZM10.3801 5.98051H6.40012V18.5005H10.3401V11.9305C10.3401 8.27051 15.1101 7.93051 15.1101 11.9305V18.5005H19.0601V10.5705C19.0601 4.40051 12.0001 4.63051 10.3401 7.66051L10.3801 5.98051Z" fill="#258BF4"/>
</svg>
