<svg width="14" height="22" viewBox="0 0 14 22" fill="none" xmlns="http://www.w3.org/2000/svg">
<g clip-path="url(#clip0_0_68)">
<path d="M8.49369 9.00098V10.5908C9.33308 10.8811 10.0784 11.4041 10.6475 12.1024C11.2167 12.8007 11.5876 13.6471 11.7195 14.5485C11.8514 15.4498 11.7391 16.3711 11.395 17.211C11.0509 18.0509 10.4884 18.7767 9.76933 19.3087C9.05026 19.8406 8.20257 20.158 7.31953 20.2259C6.4365 20.2937 5.55241 20.1095 4.76456 19.6934C3.97672 19.2773 3.31569 18.6455 2.85425 17.8675C2.39281 17.0895 2.14884 16.1956 2.14922 15.2841C2.14816 14.5239 2.31868 13.7739 2.64733 13.0932C2.70465 12.9768 2.73209 12.8472 2.72702 12.7167C2.72196 12.5863 2.68457 12.4593 2.61842 12.348C2.55226 12.2366 2.45952 12.1445 2.34904 12.0804C2.23855 12.0163 2.11396 11.9824 1.98714 11.9818C1.85147 11.9811 1.71828 12.019 1.6022 12.0913C1.48613 12.1636 1.39171 12.2675 1.32936 12.3915C0.747353 13.5918 0.541568 14.9484 0.740423 16.2741C0.939278 17.5998 1.53297 18.8293 2.43955 19.793C3.34613 20.7566 4.5209 21.4068 5.80175 21.6539C7.08261 21.901 8.40639 21.7327 9.59041 21.1724C10.7744 20.612 11.7603 19.6872 12.412 18.5256C13.0636 17.3639 13.349 16.0227 13.2286 14.6869C13.1083 13.3512 12.5882 12.0869 11.74 11.0684C10.8919 10.05 9.75763 9.32759 8.49369 9.00098Z" fill="#89C2FF"/>
<path d="M3.59321 5.27929C3.59237 4.77746 3.69574 4.28124 3.89643 3.82389C4.09711 3.36655 4.39046 2.95866 4.75681 2.62756C5.12316 2.29647 5.55403 2.04981 6.02055 1.90415C6.48707 1.75848 6.97846 1.71717 7.46176 1.78298C7.94506 1.84878 8.40913 2.02018 8.82282 2.28569C9.23651 2.5512 9.59026 2.90469 9.86038 3.32244C10.1305 3.7402 10.3108 4.21257 10.389 4.7079C10.4673 5.20322 10.4418 5.71006 10.3142 6.19441C10.2821 6.30866 10.2762 6.42903 10.297 6.54603C10.3178 6.66302 10.3647 6.77344 10.434 6.86859C10.5034 6.96374 10.5932 7.04102 10.6965 7.09432C10.7998 7.14763 10.9137 7.17551 11.0292 7.17576C11.1929 7.17477 11.3517 7.11821 11.481 7.01485C11.6103 6.9115 11.7028 6.76712 11.7443 6.60412C11.8909 6.05085 11.9441 5.47575 11.9016 4.90393C11.8344 3.99132 11.5273 3.11472 11.0132 2.36804C10.4991 1.62135 9.79732 1.03272 8.98306 0.665216C8.16881 0.297709 7.27275 0.165173 6.39091 0.281808C5.50907 0.398442 4.67466 0.759853 3.9771 1.32732C3.27955 1.89478 2.74511 2.64692 2.43107 3.50314C2.11702 4.35936 2.0352 5.2874 2.19436 6.18783C2.35353 7.08826 2.74769 7.92715 3.3346 8.61461C3.92151 9.30208 4.67907 9.81221 5.5261 10.0904V8.44415C4.94774 8.15666 4.4597 7.70735 4.11786 7.14763C3.77602 6.58792 3.59421 5.94043 3.59321 5.27929Z" fill="#89C2FF"/>
<path d="M9.53799 13.2731C9.19799 12.8268 8.75236 12.4779 8.24382 12.2598V12.0758C8.24355 11.9353 8.19586 11.7993 8.10891 11.691C8.02196 11.5827 7.90114 11.5088 7.76715 11.4821V7.15924C7.84383 7.15924 7.91977 7.14369 7.99061 7.11348C8.06146 7.08328 8.12582 7.039 8.18004 6.98318C8.23427 6.92737 8.27728 6.86111 8.30663 6.78818C8.33597 6.71526 8.35108 6.63709 8.35108 6.55816V5.95708H7.75763V5.27995H8.54173V4.7402C8.54174 4.56494 8.47428 4.39683 8.35411 4.27267C8.23394 4.14852 8.07088 4.07844 7.90063 4.07779H7.75763H6.66604C6.61471 4.07779 6.56389 4.08819 6.51647 4.10841C6.46905 4.12863 6.42598 4.15827 6.38968 4.19564C6.35339 4.233 6.32457 4.27735 6.30493 4.32617C6.28529 4.37498 6.2752 4.4273 6.2752 4.48014V11.487C6.14079 11.5129 6.01944 11.5864 5.93233 11.6949C5.84522 11.8034 5.79788 11.94 5.79853 12.0807V12.2819C5.12415 12.5766 4.56943 13.1022 4.22835 13.7697C3.88726 14.4371 3.78077 15.2054 3.92688 15.9444C4.07299 16.6834 4.4627 17.3477 5.03008 17.8249C5.59745 18.302 6.30761 18.5626 7.04024 18.5626C7.85204 18.5642 8.63318 18.2434 9.22101 17.6671C9.28258 17.6069 9.3312 17.5341 9.36377 17.4534C9.39635 17.3727 9.41214 17.2859 9.41012 17.1985C9.4081 17.1111 9.38832 17.0251 9.35205 16.9461C9.31578 16.8671 9.26382 16.7968 9.19954 16.7397V16.7274C9.08246 16.6254 8.93265 16.5718 8.77931 16.5773C8.62598 16.5827 8.48011 16.6467 8.37014 16.7569C8.09601 17.0204 7.75326 17.196 7.38375 17.2622C7.01425 17.3284 6.634 17.2824 6.28948 17.1298L8.8373 14.5047L9.52844 13.7956L9.59041 13.7319C9.6292 13.6593 9.645 13.5761 9.6356 13.4938C9.6262 13.4116 9.59207 13.3344 9.53799 13.2731ZM5.10019 15.0542C5.1521 14.6139 5.34377 14.2035 5.64544 13.8868C5.9471 13.57 6.34188 13.3647 6.76854 13.3025C7.17823 13.2419 7.596 13.3185 7.96021 13.5209L5.33853 16.2196C5.14318 15.866 5.05751 15.4594 5.09304 15.0542H5.10019Z" fill="#89C2FF"/>
</g>
<defs>
<clipPath id="clip0_0_68">
<rect width="12.6667" height="21.5333" fill="white" transform="translate(0.666702 0.233261)"/>
</clipPath>
</defs>
</svg>
