<svg width="21" height="19" viewBox="0 0 21 19" fill="none" xmlns="http://www.w3.org/2000/svg">
<path d="M6.6042 18.0319C14.5288 18.0319 18.8632 11.4664 18.8632 5.77289C18.8632 5.58641 18.8632 5.40077 18.8506 5.21597C19.6938 4.60606 20.4217 3.85087 21.0001 2.98577C20.2138 3.33438 19.3797 3.56288 18.5255 3.66365C19.425 3.12526 20.0981 2.27834 20.4197 1.28057C19.574 1.78248 18.6487 2.13617 17.6838 2.32637C17.0342 1.63563 16.175 1.17824 15.2393 1.02497C14.3035 0.871711 13.3434 1.03112 12.5073 1.47855C11.6713 1.92597 11.0061 2.63645 10.6145 3.50005C10.223 4.36366 10.127 5.33223 10.3414 6.25589C8.62841 6.16997 6.95266 5.7248 5.4229 4.94928C3.89313 4.17376 2.54354 3.08523 1.46172 1.75433C0.910759 2.70283 0.74201 3.82566 0.989834 4.8942C1.23766 5.96275 1.88342 6.89667 2.79564 7.50581C2.10995 7.48572 1.43919 7.30074 0.840122 6.96653V7.02113C0.840394 8.01588 1.18474 8.97991 1.81476 9.74971C2.44478 10.5195 3.32168 11.0477 4.29672 11.2447C3.66242 11.4177 2.99689 11.443 2.35128 11.3186C2.62671 12.1746 3.16275 12.9232 3.88446 13.4596C4.60617 13.9961 5.47747 14.2936 6.37656 14.3107C5.48326 15.0128 4.46027 15.532 3.36614 15.8384C2.272 16.1448 1.12818 16.2325 0.00012207 16.0965C1.97048 17.3609 4.26306 18.0316 6.6042 18.0285" fill="#258BF4"/>
</svg>
