<svg width="22" height="22" viewBox="0 0 22 22" fill="none" xmlns="http://www.w3.org/2000/svg">
<path d="M4.37659 3.31189L16.8651 3.31193V6.4208L4.37659 6.42076V3.31189ZM12.0001 12.1422V19H9.06721V12.1422H12.0001Z" fill="#89C2FF"/>
<path d="M10.6829 7.7442C5.90205 7.7442 2.03555 8.69776 2.03555 9.86033C2.03555 11.0229 5.91511 11.9765 10.6829 11.9765C15.4507 11.9765 19.3303 11.0229 19.3303 9.86033C19.3303 8.69776 15.4507 7.7442 10.6829 7.7442ZM10.6829 11.0098C6.2678 11.0098 2.68868 10.3567 2.68868 9.54683C2.68868 8.73695 6.2678 8.08383 10.6829 8.08383C15.0981 8.08383 18.6772 8.73695 18.6772 9.54683C18.6772 10.3567 15.0981 11.0098 10.6829 11.0098Z" fill="#89C2FF"/>
<path d="M10.5001 10.5001C11.0201 10.5001 11.5201 10.4904 12.0001 10.4614V6.50011H9.00012V10.4614C9.48012 10.4807 9.98012 10.5001 10.5001 10.5001Z" fill="#89C2FF"/>
</svg>
