<svg width="25" height="17" viewBox="0 0 25 17" fill="none" xmlns="http://www.w3.org/2000/svg">
<path d="M12.6366 0.0708008H12.7701C14.0031 0.0753008 20.2506 0.120301 21.9351 0.573301C22.4444 0.711554 22.9084 0.981035 23.2809 1.35481C23.6533 1.72859 23.9212 2.19358 24.0576 2.7033C24.2091 3.2733 24.3156 4.0278 24.3876 4.8063L24.4026 4.9623L24.4356 5.3523L24.4476 5.5083C24.5451 6.8793 24.5571 8.1633 24.5586 8.4438V8.5563C24.5571 8.8473 24.5436 10.2183 24.4356 11.6463L24.4236 11.8038L24.4101 11.9598C24.3351 12.8178 24.2241 13.6698 24.0576 14.2968C23.9216 14.8067 23.6539 15.2719 23.2813 15.6458C22.9088 16.0196 22.4446 16.289 21.9351 16.4268C20.1951 16.8948 13.5816 16.9278 12.6651 16.9293H12.4521C11.9886 16.9293 10.0716 16.9203 8.06162 16.8513L7.80662 16.8423L7.67612 16.8363L7.41962 16.8258L7.16312 16.8153C5.49812 16.7418 3.91262 16.6233 3.18212 16.4253C2.67285 16.2876 2.20872 16.0185 1.83621 15.6449C1.46369 15.2713 1.19589 14.8065 1.05962 14.2968C0.89312 13.6713 0.78212 12.8178 0.70712 11.9598L0.69512 11.8023L0.68312 11.6463C0.609091 10.6299 0.568069 9.61136 0.56012 8.5923L0.56012 8.4078C0.56312 8.0853 0.57512 6.9708 0.65612 5.7408L0.66662 5.5863L0.67112 5.5083L0.68312 5.3523L0.71612 4.9623L0.73112 4.8063C0.80312 4.0278 0.90962 3.2718 1.06112 2.7033C1.19716 2.19337 1.46486 1.72817 1.83739 1.35432C2.20992 0.980482 2.67417 0.711139 3.18362 0.573301C3.91412 0.378301 5.49962 0.258301 7.16462 0.183301L7.41962 0.172801L7.67762 0.163801L7.80662 0.159301L8.06312 0.148801C9.49068 0.102863 10.9188 0.0773601 12.3471 0.0723009H12.6366V0.0708008ZM10.1601 4.8858V12.1128L16.3956 8.5008L10.1601 4.8858Z" fill="#258BF4"/>
</svg>
