<svg width="170" height="50" viewBox="0 0 170 50" fill="none" xmlns="http://www.w3.org/2000/svg">
<rect width="23.9288" height="23.9288" transform="matrix(0.866025 0.5 -2.20305e-08 1 1 12.8413)" fill="url(#paint0_linear_0_809)"/>
<rect width="23.9288" height="23.9288" transform="matrix(0.866025 -0.5 2.20305e-08 1 21.7219 24.8054)" fill="url(#paint1_linear_0_809)"/>
<rect width="23.9288" height="23.9288" transform="matrix(0.866025 0.5 -0.866025 0.5 21.723 1)" fill="url(#paint2_linear_0_809)"/>
<path d="M21.1985 25.8214L37.2295 34.0913L21.7074 42.743L5.80358 34.6003L21.1985 25.8214Z" fill="#338DF0"/>
<g filter="url(#filter0_f_0_809)">
<rect width="9.68651" height="9.68651" transform="matrix(0.866025 0.5 -0.866025 0.5 22.0022 27.8704)" fill="#0879DB"/>
</g>
<path d="M6.31245 16.0245L21.8346 6.73666L21.8346 25.3113L5.80353 34.5668L6.31245 16.0245Z" fill="url(#paint3_linear_0_809)"/>
<path d="M21.8347 6.60962L37.3568 15.9045L37.1023 34.2186L21.8347 26.9217L21.8347 6.60962Z" fill="url(#paint4_linear_0_809)"/>
<rect width="8.86537" height="8.86537" transform="matrix(0.866025 0.5 -2.20305e-08 1 14.0453 20.4116)" fill="#D0EFFD"/>
<rect width="8.86537" height="8.86537" transform="matrix(0.866025 -0.5 2.20305e-08 1 21.7226 24.8442)" fill="white"/>
<rect width="8.86537" height="8.86537" transform="matrix(0.866025 0.5 -0.866025 0.5 21.723 16.0244)" fill="#C4E3FF"/>
<g filter="url(#filter1_b_0_809)">
<rect width="23.2352" height="23.2352" transform="matrix(0.866025 -0.5 2.20305e-08 1 21.723 24.8438)" fill="white" fill-opacity="0.06"/>
</g>
<path d="M1 13.0133L21.723 25.0266M1 13.0133L21.723 1L42.4459 13.0133M1 13.0133V36.7396L21.723 48.7529M21.723 25.0266L42.4459 13.0133M21.723 25.0266V48.7529M42.4459 13.0133V36.7396L21.723 48.7529" stroke="white"/>
<path d="M73.7044 23.5415C72.2781 23.5415 70.9114 23.3548 69.604 22.9812C68.2966 22.5907 67.2439 22.0898 66.4459 21.4786L67.8467 18.3715C68.6107 18.9148 69.5106 19.3647 70.5463 19.7213C71.599 20.0609 72.6602 20.2307 73.7298 20.2307C74.5448 20.2307 75.1985 20.1543 75.6909 20.0014C76.2003 19.8317 76.5738 19.6024 76.8115 19.3138C77.0492 19.0252 77.168 18.6941 77.168 18.3205C77.168 17.8451 76.9813 17.4716 76.6077 17.1999C76.2342 16.9113 75.7418 16.6821 75.1306 16.5123C74.5194 16.3255 73.8402 16.1557 73.0931 16.0029C72.363 15.8332 71.6245 15.6294 70.8774 15.3917C70.1473 15.154 69.4766 14.8484 68.8654 14.4748C68.2542 14.1013 67.7533 13.6089 67.3628 12.9977C66.9892 12.3865 66.8025 11.6054 66.8025 10.6546C66.8025 9.63588 67.0741 8.71054 67.6175 7.87857C68.1778 7.02963 69.0097 6.35897 70.1133 5.86659C71.2339 5.35722 72.6347 5.10254 74.3156 5.10254C75.4362 5.10254 76.5398 5.23837 77.6265 5.51003C78.7131 5.76471 79.6724 6.15523 80.5044 6.68157L79.231 9.81416C78.399 9.33875 77.567 8.99069 76.7351 8.76996C75.9031 8.53226 75.0881 8.41341 74.2901 8.41341C73.4921 8.41341 72.8384 8.50679 72.3291 8.69356C71.8197 8.88033 71.4547 9.12652 71.2339 9.43214C71.0132 9.72078 70.9029 10.0604 70.9029 10.4509C70.9029 10.9093 71.0896 11.2828 71.4632 11.5715C71.8367 11.8431 72.3291 12.0639 72.9403 12.2336C73.5516 12.4034 74.2222 12.5732 74.9523 12.743C75.6994 12.9128 76.438 13.1081 77.168 13.3288C77.9151 13.5495 78.5943 13.8466 79.2055 14.2202C79.8167 14.5937 80.3091 15.0861 80.6827 15.6973C81.0732 16.3086 81.2684 17.0811 81.2684 18.0149C81.2684 19.0167 80.9883 19.9335 80.428 20.7655C79.8677 21.5975 79.0272 22.2681 77.9066 22.7775C76.803 23.2869 75.4022 23.5415 73.7044 23.5415Z" fill="url(#paint5_linear_0_809)"/>
<path d="M87.2202 23.2359L95.1663 5.40816H99.2412L107.213 23.2359H102.883L96.3633 7.49655H97.9933L91.448 23.2359H87.2202ZM91.1933 19.4157L92.2884 16.2831H101.457L102.578 19.4157H91.1933Z" fill="url(#paint6_linear_0_809)"/>
<path d="M114.538 23.2359V5.40816H123.248C125.489 5.40816 127.17 5.83263 128.291 6.68157C129.429 7.53051 129.997 8.65111 129.997 10.0434C129.997 10.9772 129.768 11.7922 129.31 12.4883C128.851 13.1675 128.223 13.6938 127.425 14.0674C126.627 14.4409 125.71 14.6277 124.674 14.6277L125.158 13.5835C126.279 13.5835 127.272 13.7702 128.138 14.1438C129.004 14.5003 129.675 15.0351 130.15 15.7483C130.642 16.4614 130.889 17.3358 130.889 18.3715C130.889 19.8996 130.286 21.0966 129.08 21.9625C127.875 22.8114 126.101 23.2359 123.758 23.2359H114.538ZM118.638 20.1288H123.452C124.522 20.1288 125.328 19.959 125.871 19.6194C126.432 19.2629 126.712 18.7026 126.712 17.9385C126.712 17.1915 126.432 16.6396 125.871 16.2831C125.328 15.9096 124.522 15.7228 123.452 15.7228H118.333V12.7175H122.739C123.741 12.7175 124.505 12.5477 125.031 12.2082C125.574 11.8516 125.846 11.3168 125.846 10.6037C125.846 9.90754 125.574 9.38969 125.031 9.05011C124.505 8.69356 123.741 8.51528 122.739 8.51528H118.638V20.1288Z" fill="url(#paint7_linear_0_809)"/>
<path d="M137.145 23.2359L145.091 5.40816H149.166L157.137 23.2359H152.808L146.288 7.49655H147.918L141.373 23.2359H137.145ZM141.118 19.4157L142.213 16.2831H151.382L152.502 19.4157H141.118Z" fill="url(#paint8_linear_0_809)"/>
<path d="M164.463 23.2359V5.40816H168.589V23.2359H164.463Z" fill="url(#paint9_linear_0_809)"/>
<path d="M69.7441 31.6615V35.9911H74.8377V37.9649H69.7441V42.4855H75.4744V44.4593H67.3246V29.6877H75.4744V31.6615H69.7441Z" fill="#19191C"/>
<path d="M79.0275 38.6016C79.0275 37.399 79.2681 36.3449 79.7491 35.4393C80.2443 34.5196 80.9235 33.8122 81.7866 33.317C82.6497 32.8218 83.6401 32.5741 84.7579 32.5741C86.1728 32.5741 87.3401 32.9137 88.2598 33.5929C89.1936 34.2579 89.8232 35.2129 90.1487 36.458H87.5382C87.3259 35.8779 86.9864 35.4252 86.5194 35.0997C86.0525 34.7743 85.4653 34.6116 84.7579 34.6116C83.7675 34.6116 82.9751 34.9653 82.3808 35.6728C81.8007 36.3661 81.5107 37.3424 81.5107 38.6016C81.5107 39.8609 81.8007 40.8442 82.3808 41.5517C82.9751 42.2591 83.7675 42.6129 84.7579 42.6129C86.1586 42.6129 87.0854 41.9974 87.5382 40.7664H90.1487C89.8091 41.9549 89.1724 42.9029 88.2385 43.6104C87.3047 44.3037 86.1445 44.6503 84.7579 44.6503C83.6401 44.6503 82.6497 44.4027 81.7866 43.9075C80.9235 43.3981 80.2443 42.6907 79.7491 41.7852C79.2681 40.8655 79.0275 39.8043 79.0275 38.6016Z" fill="#19191C"/>
<path d="M99.0118 44.6503C97.9082 44.6503 96.9107 44.4027 96.0193 43.9075C95.1279 43.3981 94.4275 42.6907 93.9182 41.7852C93.4088 40.8655 93.1541 39.8043 93.1541 38.6016C93.1541 37.4131 93.4159 36.359 93.9394 35.4393C94.4629 34.5196 95.1774 33.8122 96.083 33.317C96.9885 32.8218 98.0001 32.5741 99.1179 32.5741C100.236 32.5741 101.247 32.8218 102.153 33.317C103.058 33.8122 103.773 34.5196 104.296 35.4393C104.82 36.359 105.082 37.4131 105.082 38.6016C105.082 39.7901 104.813 40.8442 104.275 41.7639C103.738 42.6836 103.002 43.3981 102.068 43.9075C101.148 44.4027 100.13 44.6503 99.0118 44.6503ZM99.0118 42.5492C99.6344 42.5492 100.214 42.4006 100.752 42.1035C101.304 41.8064 101.75 41.3607 102.089 40.7664C102.429 40.1722 102.599 39.4506 102.599 38.6016C102.599 37.7527 102.436 37.0382 102.11 36.458C101.785 35.8638 101.353 35.4181 100.816 35.121C100.278 34.8238 99.698 34.6753 99.0755 34.6753C98.4529 34.6753 97.8728 34.8238 97.3351 35.121C96.8116 35.4181 96.3942 35.8638 96.083 36.458C95.7717 37.0382 95.616 37.7527 95.616 38.6016C95.616 39.8609 95.9344 40.8372 96.5711 41.5305C97.2219 42.2096 98.0355 42.5492 99.0118 42.5492Z" fill="#19191C"/>
<path d="M113.374 42.2945L116.685 32.7652H119.253L114.796 44.4593H111.909L107.474 32.7652H110.063L113.374 42.2945Z" fill="#19191C"/>
<path d="M133.179 38.3257C133.179 38.7643 133.151 39.1605 133.094 39.5142H124.159C124.23 40.4481 124.576 41.198 125.199 41.7639C125.821 42.3299 126.585 42.6129 127.491 42.6129C128.793 42.6129 129.712 42.0681 130.25 40.9787H132.86C132.507 42.054 131.863 42.9383 130.929 43.6316C130.009 44.3107 128.863 44.6503 127.491 44.6503C126.373 44.6503 125.369 44.4027 124.477 43.9075C123.6 43.3981 122.907 42.6907 122.397 41.7852C121.902 40.8655 121.654 39.8043 121.654 38.6016C121.654 37.399 121.895 36.3449 122.376 35.4393C122.871 34.5196 123.558 33.8122 124.435 33.317C125.326 32.8218 126.345 32.5741 127.491 32.5741C128.595 32.5741 129.578 32.8147 130.441 33.2957C131.304 33.7768 131.976 34.456 132.457 35.3332C132.938 36.1963 133.179 37.1938 133.179 38.3257ZM130.653 37.5617C130.639 36.6703 130.321 35.9558 129.698 35.4181C129.076 34.8804 128.305 34.6116 127.385 34.6116C126.55 34.6116 125.836 34.8804 125.241 35.4181C124.647 35.9416 124.293 36.6561 124.18 37.5617H130.653Z" fill="#19191C"/>
<path d="M139.359 34.463C139.713 33.8688 140.18 33.4089 140.76 33.0835C141.354 32.7439 142.054 32.5741 142.861 32.5741V35.0785H142.245C141.297 35.0785 140.576 35.3191 140.08 35.8001C139.599 36.2812 139.359 37.116 139.359 38.3045V44.4593H136.939V32.7652H139.359V34.463Z" fill="#19191C"/>
<path d="M150.709 44.6503C149.789 44.6503 148.962 44.4876 148.226 44.1622C147.504 43.8226 146.931 43.3698 146.507 42.8039C146.082 42.2238 145.856 41.58 145.828 40.8725H148.332C148.374 41.3678 148.608 41.7852 149.032 42.1247C149.471 42.4502 150.016 42.6129 150.667 42.6129C151.346 42.6129 151.869 42.4855 152.237 42.2308C152.619 41.962 152.81 41.6224 152.81 41.2121C152.81 40.7735 152.598 40.4481 152.173 40.2358C151.763 40.0236 151.105 39.7901 150.2 39.5355C149.322 39.2949 148.608 39.0615 148.056 38.8351C147.504 38.6087 147.023 38.262 146.613 37.7951C146.217 37.3282 146.019 36.7127 146.019 35.9487C146.019 35.3261 146.203 34.7602 146.57 34.2508C146.938 33.7273 147.462 33.317 148.141 33.0198C148.834 32.7227 149.627 32.5741 150.518 32.5741C151.848 32.5741 152.916 32.9137 153.723 33.5929C154.543 34.2579 154.982 35.1705 155.039 36.3307H152.619C152.577 35.8072 152.364 35.3898 151.982 35.0785C151.6 34.7672 151.084 34.6116 150.433 34.6116C149.796 34.6116 149.308 34.7319 148.969 34.9724C148.629 35.2129 148.459 35.5313 148.459 35.9275C148.459 36.2387 148.572 36.5005 148.799 36.7127C149.025 36.925 149.301 37.0948 149.627 37.2221C149.952 37.3353 150.433 37.4839 151.07 37.6678C151.919 37.8942 152.612 38.1276 153.15 38.3682C153.701 38.5945 154.175 38.9341 154.572 39.3869C154.968 39.8397 155.173 40.441 155.187 41.1909C155.187 41.8559 155.003 42.4502 154.635 42.9737C154.267 43.4972 153.744 43.9075 153.065 44.2046C152.4 44.5018 151.615 44.6503 150.709 44.6503Z" fill="#19191C"/>
<path d="M169.899 38.3257C169.899 38.7643 169.871 39.1605 169.814 39.5142H160.879C160.95 40.4481 161.296 41.198 161.919 41.7639C162.541 42.3299 163.305 42.6129 164.211 42.6129C165.513 42.6129 166.432 42.0681 166.97 40.9787H169.58C169.227 42.054 168.583 42.9383 167.649 43.6316C166.729 44.3107 165.583 44.6503 164.211 44.6503C163.093 44.6503 162.089 44.4027 161.197 43.9075C160.32 43.3981 159.627 42.6907 159.117 41.7852C158.622 40.8655 158.374 39.8043 158.374 38.6016C158.374 37.399 158.615 36.3449 159.096 35.4393C159.591 34.5196 160.278 33.8122 161.155 33.317C162.046 32.8218 163.065 32.5741 164.211 32.5741C165.315 32.5741 166.298 32.8147 167.161 33.2957C168.024 33.7768 168.696 34.456 169.177 35.3332C169.658 36.1963 169.899 37.1938 169.899 38.3257ZM167.373 37.5617C167.359 36.6703 167.041 35.9558 166.418 35.4181C165.796 34.8804 165.025 34.6116 164.105 34.6116C163.27 34.6116 162.556 34.8804 161.961 35.4181C161.367 35.9416 161.013 36.6561 160.9 37.5617H167.373Z" fill="#19191C"/>
<defs>
<filter id="filter0_f_0_809" x="9.6134" y="23.8704" width="24.7776" height="17.6865" filterUnits="userSpaceOnUse" color-interpolation-filters="sRGB">
<feFlood flood-opacity="0" result="BackgroundImageFix"/>
<feBlend mode="normal" in="SourceGraphic" in2="BackgroundImageFix" result="shape"/>
<feGaussianBlur stdDeviation="2" result="effect1_foregroundBlur_0_809"/>
</filter>
<filter id="filter1_b_0_809" x="17.723" y="9.22607" width="28.1223" height="42.853" filterUnits="userSpaceOnUse" color-interpolation-filters="sRGB">
<feFlood flood-opacity="0" result="BackgroundImageFix"/>
<feGaussianBlur in="BackgroundImageFix" stdDeviation="2"/>
<feComposite in2="SourceAlpha" operator="in" result="effect1_backgroundBlur_0_809"/>
<feBlend mode="normal" in="SourceGraphic" in2="effect1_backgroundBlur_0_809" result="shape"/>
</filter>
<linearGradient id="paint0_linear_0_809" x1="8.29209e-07" y1="11.124" x2="18.8869" y2="28.5413" gradientUnits="userSpaceOnUse">
<stop stop-color="#3D9FE7"/>
<stop offset="0.786458" stop-color="#0C6AD2"/>
</linearGradient>
<linearGradient id="paint1_linear_0_809" x1="15.6071" y1="2.15823" x2="19.7584" y2="22.3725" gradientUnits="userSpaceOnUse">
<stop stop-color="#D8EDFE"/>
<stop offset="1" stop-color="#A8D2FF"/>
</linearGradient>
<linearGradient id="paint2_linear_0_809" x1="22.0842" y1="1.62332" x2="9.27291" y2="25.494" gradientUnits="userSpaceOnUse">
<stop stop-color="#3C94F0"/>
<stop offset="1" stop-color="#71B6FE"/>
</linearGradient>
<linearGradient id="paint3_linear_0_809" x1="13.819" y1="11.3644" x2="21.8621" y2="25.2954" gradientUnits="userSpaceOnUse">
<stop stop-color="#98D0FD"/>
<stop offset="1" stop-color="#6FB5FF"/>
</linearGradient>
<linearGradient id="paint4_linear_0_809" x1="37.6408" y1="17.3582" x2="21.1161" y2="18.93" gradientUnits="userSpaceOnUse">
<stop stop-color="#98D0FD"/>
<stop offset="1" stop-color="#6FB5FF"/>
</linearGradient>
<linearGradient id="paint5_linear_0_809" x1="170.789" y1="30.6641" x2="155.062" y2="-33.0236" gradientUnits="userSpaceOnUse">
<stop stop-color="#73C4FF"/>
<stop offset="1" stop-color="#2782E9"/>
</linearGradient>
<linearGradient id="paint6_linear_0_809" x1="170.789" y1="30.6641" x2="155.062" y2="-33.0236" gradientUnits="userSpaceOnUse">
<stop stop-color="#73C4FF"/>
<stop offset="1" stop-color="#2782E9"/>
</linearGradient>
<linearGradient id="paint7_linear_0_809" x1="170.789" y1="30.6641" x2="155.062" y2="-33.0236" gradientUnits="userSpaceOnUse">
<stop stop-color="#73C4FF"/>
<stop offset="1" stop-color="#2782E9"/>
</linearGradient>
<linearGradient id="paint8_linear_0_809" x1="170.789" y1="30.6641" x2="155.062" y2="-33.0236" gradientUnits="userSpaceOnUse">
<stop stop-color="#73C4FF"/>
<stop offset="1" stop-color="#2782E9"/>
</linearGradient>
<linearGradient id="paint9_linear_0_809" x1="170.789" y1="30.6641" x2="155.062" y2="-33.0236" gradientUnits="userSpaceOnUse">
<stop stop-color="#73C4FF"/>
<stop offset="1" stop-color="#2782E9"/>
</linearGradient>
</defs>
</svg>
