<svg width="885" height="852" viewBox="0 0 885 852" fill="none" xmlns="http://www.w3.org/2000/svg">
<path d="M634.603 348.038C654.478 345.703 666.459 329.41 657.861 315.668C640.173 287.391 538.946 269.724 530.15 282.912C521.485 295.905 593.13 352.914 634.603 348.038Z" stroke="white" stroke-opacity="0.05" stroke-width="2" stroke-miterlimit="10"/>
<path d="M576.954 383.029C532.354 385.586 493.439 264.834 528.39 249.024C549.879 239.301 591.142 253.16 623.833 267.791C654.523 281.526 694.908 313.205 697.335 347.22C698.607 365.273 688.327 387.515 673.334 392.027C661.732 395.517 649.333 388.878 646.116 389.088C633.879 379.317 632.486 376.487 621.803 371.947C607.84 366.012 589.219 382.327 576.954 383.029Z" stroke="white" stroke-opacity="0.05" stroke-width="2" stroke-miterlimit="10"/>
<path d="M521.533 420.971C476.646 399.912 468.034 237.413 528.858 218.085C567.594 205.775 621.509 231.642 657.713 254.457C690.97 275.413 741.287 327.897 739.037 381.721C737.733 412.997 717.269 451.635 689.109 456.412C666.663 460.218 643.6 444.758 639.307 442.844C616.963 420.991 616.91 413.128 598.625 402.585C574.412 388.633 540.287 429.787 521.533 420.971Z" stroke="white" stroke-opacity="0.05" stroke-width="2" stroke-miterlimit="10"/>
<path d="M469.186 459.438C421.227 430.625 445.669 210.639 532.399 187.677C588.373 172.86 655.006 210.577 694.667 241.652C730.548 269.759 790.541 342.984 783.813 416.753C779.758 461.243 749.343 516.245 707.962 521.329C674.71 525.42 640.601 501.592 635.581 497.132C600.486 465.937 604.425 450.305 578.507 433.749C544.088 411.727 494.308 474.512 469.186 459.438Z" stroke="white" stroke-opacity="0.05" stroke-width="2" stroke-miterlimit="10"/>
<path d="M419.78 496.317C368.005 459.76 426.278 182.514 538.881 155.676C612.115 138.516 691.489 187.886 734.559 227.249C773.121 262.486 842.696 356.419 831.545 450.201C824.69 507.849 784.377 579.255 729.765 584.67C685.693 589.027 641.045 556.201 634.798 549.847C590.852 505.144 594.937 485.84 561.377 463.334C516.743 433.24 450.772 518.195 419.78 496.317Z" stroke="white" stroke-opacity="0.05" stroke-width="2" stroke-miterlimit="10"/>
<path d="M753.358 647.847C698.485 652.471 643.321 610.68 635.808 602.393C583.133 544.288 587.168 521.343 546.012 492.78C491.131 454.692 408.671 561.998 372.185 533.07C316.141 488.633 408.589 153.851 547.175 123.549C637.603 103.777 729.828 165.05 776.265 212.726C817.507 255.064 896.601 369.688 881.056 483.51C871.381 554.305 821.203 642.133 753.358 647.847Z" stroke="white" stroke-opacity="0.05" stroke-width="2" stroke-miterlimit="10"/>
<path d="M208.364 528.297C227.796 534.064 241.424 574.611 222.33 575.234C211.301 575.598 186.074 562.746 178.227 550.533C167.172 533.342 194.994 524.325 208.364 528.297Z" stroke="white" stroke-opacity="0.05" stroke-width="2" stroke-miterlimit="10"/>
<path d="M251.26 578.427C248.048 582.418 238.542 581.866 228.807 585.052C209.059 591.519 205.156 596.167 191.476 599.558C186.138 600.885 178.983 602.587 173.429 599.267C164.926 594.182 165.664 582.972 159.326 561.032C151.125 532.533 147.185 524.641 155.193 513.093C157.057 510.409 161.134 501.151 170.119 497.373C182.558 492.155 192.594 501.837 208.944 500.718C228.578 499.385 240.694 490.443 246.949 497.735C251.357 502.871 248.744 512.713 247.913 530.919C247.279 544.789 246.779 553.866 248.55 561.897C250.691 571.468 254.833 573.991 251.26 578.427Z" stroke="white" stroke-opacity="0.05" stroke-width="2" stroke-miterlimit="10"/>
<path d="M283.756 577.531C281.11 585.483 267.368 585.747 253.62 594.382C225.424 612.098 230.404 631.986 208.29 644.493C198.906 649.804 185.459 653.695 174.447 649.023C158.82 642.391 158.2 624.074 143.039 582.938C123.219 529.155 111.837 516.465 121.688 493.676C123.698 489.032 129.631 470.687 145.576 463.205C166.841 453.227 183.314 472.609 213.125 469.088C246.43 465.172 265.204 441.715 273.638 450.113C279.495 455.945 272.392 470.602 269.087 502.223C266.723 524.694 265.468 537.864 270.092 550.277C275.931 565.934 286.626 568.894 283.756 577.531Z" stroke="white" stroke-opacity="0.05" stroke-width="2" stroke-miterlimit="10"/>
<path d="M316.252 576.747C314.222 588.651 296.209 589.748 278.431 603.829C241.829 632.815 256.128 667.816 225.104 689.545C211.826 698.842 191.913 704.847 175.464 698.891C152.666 690.638 150.642 665.34 126.718 604.945C95.1497 525.944 76.8253 508.361 88.1416 474.358C90.3511 467.728 98.0926 440.334 120.995 429.123C151.086 414.401 174.032 443.52 217.262 437.548C264.267 431.057 289.657 393.087 300.304 402.582C307.601 409.131 296.116 428.615 290.238 473.623C286.177 504.706 284.172 521.904 291.616 538.754C301.212 560.467 318.448 563.927 316.252 576.747Z" stroke="white" stroke-opacity="0.05" stroke-width="2" stroke-miterlimit="10"/>
<path d="M348.81 576.008C347.382 591.846 325.14 593.812 303.305 613.316C258.345 653.611 282.043 703.626 241.976 734.637C224.845 747.908 198.422 756.02 176.539 748.803C146.556 738.911 143.287 706.595 110.477 626.999C67.3507 522.713 41.9903 500.243 54.6961 455.092C57.1179 446.479 66.6731 410.066 96.5181 395.1C135.458 375.666 164.824 414.494 221.504 406.062C282.212 397.024 314.229 344.502 327.033 355.093C335.778 362.347 319.901 386.674 311.452 445.064C305.706 484.766 302.94 505.967 313.198 527.271C326.569 555.023 350.344 558.977 348.81 576.008Z" stroke="white" stroke-opacity="0.05" stroke-width="2" stroke-miterlimit="10"/>
<path d="M381.422 575.29C382.297 554.038 351.991 549.602 334.847 515.812C321.772 490.049 325.297 464.853 332.729 416.527C343.765 344.765 364.022 315.587 353.829 307.632C338.846 295.935 300.205 363.014 225.788 374.592C155.683 385.497 119.836 336.878 72.0829 361.093C35.268 379.765 23.9418 425.211 21.291 435.847C7.25954 492.151 39.6051 519.506 94.2931 649.079C135.995 747.877 140.497 787.199 177.681 798.739C204.994 807.215 237.942 796.991 258.915 779.753C308.019 739.422 274.86 674.35 328.234 622.824C354.1 597.856 380.611 595.062 381.422 575.29Z" stroke="white" stroke-opacity="0.05" stroke-width="2" stroke-miterlimit="10"/>
<path d="M225.85 184.427C230.192 188.469 242.294 186.57 245.466 179.1C249.062 170.625 239.075 159.886 233.119 160.616C226.073 161.484 220.088 179.074 225.85 184.427Z" stroke="white" stroke-opacity="0.05" stroke-width="2" stroke-miterlimit="10"/>
<path d="M224.952 133.645C213.955 139.264 205.885 153.061 194.212 177.332C182.64 201.399 178.103 219.708 181.498 222.109C183.351 223.41 190.773 219.536 196.94 216.907C208.48 212.007 224.251 217.456 228.592 217.816C244.484 219.13 250.505 214.811 259.866 205.914C264.194 201.807 274.127 192.796 280.821 180.758C290.99 162.538 313.119 162.388 312.885 153.845C312.674 146.709 292.922 139.309 279.872 135.355C261.169 129.686 241.951 124.972 224.952 133.645Z" stroke="white" stroke-opacity="0.05" stroke-width="2" stroke-miterlimit="10"/>
<path d="M216.208 107.517C197.797 117.915 185.196 140.63 163.478 183.641C141.561 226.831 132.596 258.202 136.579 260.614C139.563 262.44 153.312 254.159 164.557 248.648C185.772 238.195 215.154 249.371 221.639 250.175C251.191 253.939 261.18 245.46 277.846 228.797C284.788 221.858 303.108 205.345 315.653 183.229C334.913 149.36 379.321 151.817 379.755 137.331C380.107 125.266 341.963 112.426 317.384 106.356C282.671 97.8165 247.321 89.9369 216.208 107.517Z" stroke="white" stroke-opacity="0.05" stroke-width="2" stroke-miterlimit="10"/>
<path d="M207.504 81.5543C181.668 96.7239 164.595 128.392 132.789 190.116C100.587 252.461 87.165 296.806 91.6974 299.311C95.8442 301.621 115.901 288.959 132.205 280.538C163.065 264.482 206.081 281.441 214.708 282.722C257.856 289.122 271.894 276.343 295.848 251.863C305.407 242.098 332.107 218.077 350.508 185.897C378.846 136.371 445.535 141.444 446.648 121.015C447.558 104.018 391.034 85.667 354.913 77.5608C304.232 66.0294 252.683 55.0257 207.504 81.5543Z" stroke="white" stroke-opacity="0.05" stroke-width="2" stroke-miterlimit="10"/>
<path d="M198.844 55.6183C165.57 75.5554 144.032 116.183 102.139 196.621C59.6369 278.107 41.7565 335.412 46.8496 338.036C52.1743 340.792 78.5285 323.822 99.8842 312.478C140.422 290.884 197.033 313.57 207.809 315.297C264.533 324.406 282.704 307.311 313.887 274.963C326.086 262.387 361.142 230.842 385.392 188.593C422.82 123.418 511.792 131.103 513.57 104.726C515.045 82.8084 440.118 59.0237 392.476 48.7901C325.815 34.3928 258.075 20.123 198.844 55.6183Z" stroke="white" stroke-opacity="0.05" stroke-width="2" stroke-miterlimit="10"/>
<path d="M200.929 347.891C271.217 359.734 293.436 338.199 331.94 298.077C346.744 282.652 390.196 243.623 420.298 191.309C466.798 110.47 578.064 120.775 580.514 88.4566C582.555 61.5824 489.219 32.4038 430.057 20.0384C347.388 2.77221 263.473 -14.7685 190.199 29.6959C149.485 54.4047 123.49 103.981 71.5022 203.139C18.7344 303.78 -3.60053 374.033 2.02496 376.778C8.54798 379.958 41.1571 358.712 67.5773 344.437C117.795 317.31 188 345.713 200.929 347.891Z" stroke="white" stroke-opacity="0.05" stroke-width="2" stroke-miterlimit="10"/>
<path d="M694.852 713.865C695.657 681.981 636.179 679.956 589.368 594.153C572.594 563.407 563.934 533.803 533.739 520.9C530.692 519.599 500.309 507.14 472.368 520.931C437.217 538.28 444.096 578.356 397.471 618.074C380.296 632.705 379.814 626.883 366.925 638.61C311.914 688.668 351.347 766.897 300.563 819.196C277.186 843.269 252.72 843.301 253.798 847.633C258.479 866.233 692.741 799.799 694.852 713.865Z" stroke="white" stroke-opacity="0.05" stroke-width="2" stroke-miterlimit="10"/>
<path d="M513.487 558.979C511.515 558.691 491.275 551.193 472.985 561.365C449.865 574.203 455.526 602.664 425.344 630.207C414.235 640.351 414.144 636.708 405.957 644.905C371.024 679.883 400.213 733.577 368.315 768.479C353.551 784.636 337.561 784.714 339.225 787.185C346.733 798.431 635.472 747.275 631.112 687.616C629.479 665.242 586.726 660.716 552.704 603.75C540.33 583.048 533.981 561.975 513.487 558.979Z" stroke="white" stroke-opacity="0.05" stroke-width="2" stroke-miterlimit="10"/>
<path d="M493.234 597.063C492.301 598.27 482.194 595.33 473.602 601.799C462.449 610.19 466.938 626.934 453.219 642.336C448.185 647.991 448.46 646.552 444.985 651.199C430.054 671.186 449.122 700.241 436.062 717.765C429.936 726.019 423.042 725.744 424.617 726.732C437.684 728.56 577.981 694.556 567.394 661.373C563.263 648.408 537.126 641.452 516.062 613.354C508.057 602.673 502.99 595.08 493.234 597.063Z" stroke="white" stroke-opacity="0.05" stroke-width="2" stroke-miterlimit="10"/>
<path d="M472.981 635.143C474.036 656.554 498.362 670.729 510.044 666.285C527.274 659.717 519.175 642.381 503.667 635.127C492.071 629.72 471.775 610.639 472.981 635.143Z" stroke="white" stroke-opacity="0.05" stroke-width="2" stroke-miterlimit="10"/>
</svg>
