<svg width="113" height="35" viewBox="0 0 113 35" fill="none" xmlns="http://www.w3.org/2000/svg">
<path d="M22.2534 7.18859C20.6556 5.8545 18.4683 5.19531 15.6761 5.19531H8.7265V6.1841H15.552C17.9254 6.1841 20.0661 6.67065 21.3847 7.83208C22.7032 8.99352 23.6805 10.6886 23.6805 12.7917C23.6805 14.8321 22.8118 16.3231 21.4622 17.4689C20.1126 18.6146 17.6617 19.1168 15.2262 19.1168H7.39243V20.1056H15.2883C18.2201 20.1056 20.516 19.4621 22.1758 18.1751C23.8201 16.8881 24.6578 15.0675 24.6578 12.7289C24.6578 10.3433 23.8512 8.50697 22.2534 7.18859Z" fill="white" fill-opacity="0.8"/>
<path d="M21.6643 8.59992C20.6715 7.83086 19.5391 7.21875 16.3125 7.21875H10.9452V8.17615C10.9452 8.17615 13.3496 8.14476 16.1884 8.17615C18.9341 8.20754 19.9424 8.52144 20.8731 9.21202C22.0521 10.0909 22.7967 11.1896 22.7967 12.712C22.7967 14.1874 22.0521 15.2232 20.8576 16.1179C19.6477 17.0282 17.7862 17.0282 17.026 17.0596C16.7468 17.0596 13.0393 17.0596 13.0393 17.0596V18.017C13.0393 18.017 14.8698 18.0483 16.0177 18.017C18.6238 17.9542 20.1751 17.7972 21.6177 16.7143C22.9673 15.6941 23.6809 14.36 23.6809 12.6649C23.6809 10.4362 22.564 9.32189 21.6643 8.59992Z" fill="white" fill-opacity="0.8"/>
<path d="M21.1836 9.87069C20.439 9.39984 19.7874 9.08594 16.7005 9.08594H12.8379V9.71374H16.5919C19.3221 9.71374 20.3459 10.2003 20.6716 10.4043C21.2921 10.781 22.0988 11.4088 22.0988 12.6644C22.0988 13.4649 21.6334 14.485 20.9354 14.8774C20.2993 15.2384 19.1359 15.568 17.1038 15.568H4.50766V16.1958H17.1348C19.6013 16.1958 20.439 15.9133 21.3077 15.4267C22.1764 14.9402 22.7658 13.9357 22.7658 12.6644C22.7658 11.2205 21.9747 10.3729 21.1836 9.87069Z" fill="white" fill-opacity="0.8"/>
<path d="M23.6342 16.8253C22.0364 15.4912 19.8492 14.832 17.0569 14.832H12.4032V15.8208H16.9173C19.2907 15.8208 21.4315 16.3231 22.75 17.4688C24.0686 18.6145 25.0614 20.3253 25.0614 22.4284C25.0614 24.4688 24.2082 25.9598 22.8431 27.1056C21.478 28.2513 19.0425 28.7536 16.6071 28.7536H8.77328V29.7423H16.6691C19.601 29.7423 21.8968 29.0989 23.5567 27.8119C25.2165 26.5249 26.0387 24.7042 26.0387 22.3657C26.0231 19.9957 25.232 18.1594 23.6342 16.8253Z" fill="white" fill-opacity="0.8"/>
<path d="M23.0449 18.2366C22.0521 17.4833 20.9196 16.8555 17.693 16.8555H10.4022V17.8129C10.4022 17.8129 14.7302 17.7815 17.5689 17.8129C20.3147 17.8443 21.323 18.1582 22.2537 18.8487C23.4327 19.7277 24.1773 20.8263 24.1773 22.3487C24.1773 23.8241 23.4327 24.86 22.2382 25.7546C21.0282 26.6649 19.1667 26.6649 18.4066 26.6963C18.1274 26.6963 14.4199 26.6963 14.4199 26.6963V27.6537C14.4199 27.6537 16.2659 27.6851 17.3983 27.6537C20.0044 27.5909 21.5557 27.4339 22.9983 26.351C24.3479 25.3308 25.0615 23.9967 25.0615 22.3017C25.0615 20.0887 23.9601 18.9586 23.0449 18.2366Z" fill="white" fill-opacity="0.8"/>
<path d="M11.9549 21.5024H18.7959V20.9688H11.9549V21.5024Z" fill="white" fill-opacity="0.8"/>
<path d="M14.7772 23.3692H18.7484V22.9141H14.7772V23.3692Z" fill="white" fill-opacity="0.8"/>
<path d="M8.77328 21.5024H10.7899V20.9688H8.77328V21.5024Z" fill="white" fill-opacity="0.8"/>
<path d="M7.5018 23.4008H13.6602V22.8672H7.5018V23.4008Z" fill="white" fill-opacity="0.8"/>
<path d="M9.02133 9.66993H11.4258V9.23047H9.02133V9.66993Z" fill="white" fill-opacity="0.8"/>
<path d="M7.36313 13.2483H12.839V12.7461H7.36313V13.2483Z" fill="white" fill-opacity="0.8"/>
<path d="M7.5018 27.5926H13.288V26.9648H7.5018V27.5926Z" fill="white" fill-opacity="0.8"/>
<path d="M6.07407 29.6799H7.51673V28.7539H6.07407V29.6799Z" fill="white" fill-opacity="0.8"/>
<path d="M9.67368 11.678H18.764V11.1758H9.67368V11.678Z" fill="white" fill-opacity="0.8"/>
<path d="M14.2186 13.2483H18.5931V12.7461H14.2186V13.2483Z" fill="white" fill-opacity="0.8"/>
<path d="M22.5644 19.605C21.8198 19.1498 21.1683 18.8359 18.0813 18.8359H13.1794V19.448H17.9882C20.7184 19.448 21.7578 19.9189 22.068 20.1072C22.673 20.4682 23.4952 21.0646 23.4952 22.2889C23.4952 23.0736 23.0298 24.0467 22.3317 24.4234C21.6957 24.7687 20.5323 25.0826 18.5002 25.0826H5.88852V25.6947H18.5157C20.9821 25.6947 21.8198 25.4279 22.6885 24.957C23.5572 24.4862 24.1312 23.5288 24.1312 22.2889C24.1467 20.9234 23.3556 20.1072 22.5644 19.605Z" fill="white" fill-opacity="0.8"/>
<path d="M35.5012 18.2364V23.8395H38.5262C39.8292 23.8395 40.853 23.5884 41.5666 23.0861C42.2647 22.631 42.668 21.8462 42.6525 20.9987C42.6525 19.1624 41.1167 18.2364 38.0608 18.2364H35.5012ZM35.5012 11.566V16.5884H37.7816C39.007 16.5884 39.9533 16.3529 40.6514 15.8664C41.3339 15.4269 41.7372 14.6422 41.7062 13.826C41.7062 12.3193 40.4962 11.5503 38.0608 11.5503L35.5012 11.566ZM33.2674 25.4875V9.91797H38.6813C40.3256 9.91797 41.6286 10.2476 42.5904 10.9068C43.5522 11.566 44.0331 12.4292 44.0331 13.4807C44.0486 14.3283 43.7383 15.1601 43.1644 15.7879C42.5749 16.4471 41.7838 16.9023 40.7599 17.1848V17.2319C42.0475 17.3574 43.0713 17.7498 43.8314 18.4247C44.5915 19.0682 45.0104 20.0256 44.9793 21.0301C44.9793 22.3642 44.3899 23.4314 43.2264 24.2633C42.063 25.0951 40.5893 25.5032 38.8054 25.5032H33.2674V25.4875Z" fill="white" fill-opacity="0.8"/>
<path d="M47.4617 25.488H49.6334V14.3759H47.4617V25.488ZM48.563 11.5351C48.2063 11.5507 47.8495 11.4252 47.5703 11.2055C47.3065 11.0171 47.1514 10.7032 47.1669 10.3893C47.1669 10.0597 47.3221 9.74581 47.5703 9.55747C47.8495 9.33774 48.2063 9.21218 48.563 9.22788C48.9353 9.21218 49.2921 9.33774 49.5714 9.55747C50.0212 9.88707 50.1143 10.5149 49.804 10.97C49.742 11.0642 49.6644 11.1427 49.5714 11.2055C49.2921 11.4409 48.9353 11.5507 48.563 11.5351Z" fill="white" fill-opacity="0.8"/>
<path d="M59.2353 25.3803C58.7234 25.6157 58.0409 25.7256 57.2032 25.7256C54.8298 25.7256 53.6353 24.6426 53.6353 22.461V15.8848H51.3084V14.3624H53.6353V11.6471L55.8071 11.0664V14.3624H59.2198V15.8848H55.8071V22.1471C55.8071 22.8848 55.9622 23.4184 56.2724 23.748C56.5827 24.0776 57.0946 24.2189 57.8082 24.2189C58.3046 24.2346 58.801 24.109 59.2198 23.8422L59.2353 25.3803Z" fill="white" fill-opacity="0.8"/>
<path d="M78.9838 25.4897H76.9517V15.8844C76.9672 14.9584 77.0137 14.0167 77.1223 13.0906H77.0758C76.9517 13.5615 76.7655 14.0324 76.5484 14.4718L70.5761 25.4741H69.5678L63.611 14.5503C63.3783 14.0794 63.2076 13.5929 63.0835 13.075H63.037C63.1146 14.001 63.1456 14.9427 63.1301 15.8844V25.4741H61.16V11.1602H63.8747L69.242 21.1422C69.5522 21.6915 69.8315 22.2723 70.0486 22.8687H70.1262C70.483 22.0839 70.7622 21.5032 70.9639 21.1108L76.4398 11.1602H78.9993V25.4897" fill="white" fill-opacity="0.8"/>
<path d="M90.0281 19.8538L86.755 20.2305C85.7467 20.3403 84.9865 20.5444 84.4746 20.8426C83.9627 21.1408 83.699 21.6587 83.699 22.3964C83.699 22.93 83.9627 23.4322 84.4126 23.7305C84.878 24.0757 85.514 24.2484 86.3051 24.2484C87.391 24.2484 88.2752 23.9345 88.9733 23.3224C89.6558 22.7417 90.0436 21.8784 90.0281 20.9681V19.8538ZM92.1998 25.4883H90.0281V23.7461H89.9816C89.0353 25.0802 87.6392 25.7394 85.8087 25.7394C84.4591 25.7394 83.4043 25.4412 82.6286 24.8605C81.8841 24.3269 81.4652 23.4479 81.4807 22.5219C81.4807 20.4502 82.9699 19.2417 85.9638 18.8964L90.0281 18.4255C90.0281 16.5421 89.0973 15.6004 87.2359 15.6004C85.6536 15.5847 84.1178 16.0556 82.8148 16.9659V15.1453C84.1489 14.4547 85.6846 14.1094 87.422 14.1094C90.6176 14.1094 92.1998 15.4905 92.1998 18.2529V25.4883Z" fill="white" fill-opacity="0.8"/>
<path d="M102.283 16.1642C101.895 15.9287 101.352 15.8032 100.638 15.8032C99.7385 15.7875 98.8853 16.1799 98.3113 16.8861C97.6908 17.6081 97.3806 18.5812 97.3806 19.8211V25.487H95.2088V14.3749H97.3806V16.6664H97.4271C97.7063 15.9287 98.2027 15.2852 98.8543 14.8301C99.4748 14.3906 100.219 14.1709 100.995 14.1709C101.429 14.1552 101.879 14.2023 102.298 14.3278L102.283 16.1642Z" fill="white" fill-opacity="0.8"/>
<path d="M109.852 25.3803C109.341 25.6157 108.658 25.7256 107.82 25.7256C105.447 25.7256 104.252 24.6426 104.252 22.461V15.8848H101.926V14.3624H104.252V11.6471L106.424 11.0664V14.3624H109.837V15.8848H106.424V22.1471C106.424 22.8848 106.579 23.4184 106.89 23.748C107.2 24.0776 107.712 24.2189 108.425 24.2189C108.922 24.2346 109.418 24.109 109.837 23.8422L109.852 25.3803Z" fill="white" fill-opacity="0.8"/>
</svg>
