<svg width="132" height="29" viewBox="0 0 132 29" fill="none" xmlns="http://www.w3.org/2000/svg">
<path fill-rule="evenodd" clip-rule="evenodd" d="M0.557672 -0.0871391C3.85146 3.95505 7.46796 9.03327 8.05291 9.85464C8.0841 9.89843 8.10667 9.93013 8.12011 9.94891C8.43193 10.3847 8.68935 10.7087 8.88484 10.9547C9.31882 11.5008 9.4476 11.6629 9.18865 11.8117C8.97978 11.9318 8.7643 11.9714 8.5493 11.9714C8.30611 11.9714 8.03212 11.8529 7.83263 11.6616C7.69162 11.5264 6.72674 10.1094 5.41286 8.04811C4.40758 6.47085 3.56627 5.16244 3.54331 5.14053C3.49025 5.08986 3.49116 5.09158 5.31037 8.38284C6.45267 10.4495 7.23405 11.9768 7.23405 12.0745C7.23405 12.2732 7.18041 12.3777 6.93794 12.6512C6.53372 13.1072 6.35302 13.6195 6.22258 14.6798C6.07635 15.8683 5.66516 16.7081 4.52562 18.1449C3.85857 18.9862 3.74943 19.1403 3.58111 19.4794C3.36912 19.9063 3.31081 20.1454 3.28718 20.6846C3.26221 21.2546 3.31085 21.6229 3.48308 22.1678C3.63387 22.6449 3.79126 22.96 4.19362 23.5902C4.54085 24.1339 4.74079 24.538 4.74079 24.6961C4.74079 24.8219 4.76454 24.8221 5.30261 24.6993C6.59027 24.4052 7.63585 23.8882 8.2239 23.2544C8.58784 22.8621 8.67329 22.6456 8.67605 22.1081C8.67788 21.7565 8.66564 21.6829 8.57166 21.4807C8.41866 21.1514 8.14013 20.8777 7.52624 20.4534C6.72186 19.8974 6.37831 19.4498 6.28341 18.8342C6.20557 18.3292 6.29588 17.9728 6.74086 17.0298C7.20143 16.0537 7.31557 15.6378 7.39278 14.6538C7.44264 14.0181 7.51171 13.7675 7.69233 13.5663C7.88071 13.3565 8.0503 13.2854 8.51649 13.2209C9.27654 13.116 9.7605 12.9172 10.1583 12.5465C10.5034 12.225 10.6478 11.9151 10.67 11.4487L10.6868 11.0952L10.494 10.8678C9.79557 10.0445 0.0899671 -0.734375 0.0469882 -0.734375C0.0378067 -0.734375 0.267624 -0.443099 0.557672 -0.0871391ZM5.13283 21.3296C5.29074 21.0467 5.20684 20.6833 4.94271 20.5057C4.69314 20.3379 4.30547 20.417 4.30547 20.6356C4.30547 20.7023 4.34195 20.7508 4.4242 20.7937C4.56267 20.8658 4.57272 20.9468 4.46377 21.1123C4.35343 21.2801 4.36233 21.4275 4.48889 21.5276C4.69287 21.6891 4.9816 21.6003 5.13283 21.3296ZM9.8856 5.91024C9.57402 5.86138 9.56089 5.85564 9.70751 5.83286C9.9885 5.78916 10.652 5.84871 11.1092 5.95864C12.1766 6.21518 13.1478 6.87237 14.1846 8.03956L14.46 8.34963L14.8541 8.28558C16.514 8.01585 18.2027 8.23021 19.6151 8.88995C20.0037 9.07147 20.6163 9.43276 20.6928 9.5256C20.7171 9.55519 20.7621 9.74567 20.7923 9.94891C20.8972 10.6521 20.8448 11.1911 20.632 11.5936C20.5163 11.8127 20.5099 11.8821 20.5876 12.0696C20.6497 12.2192 20.8229 12.3299 20.9945 12.3297C21.3454 12.3292 21.7231 11.7555 21.8983 10.9572L21.9678 10.6401L22.1055 10.7979C22.861 11.6634 23.4545 12.8438 23.5565 13.684L23.583 13.9031L23.456 13.704C23.2374 13.3613 23.0179 13.128 22.7366 12.9398C22.2297 12.6007 21.6936 12.4852 20.2742 12.4096C18.9921 12.3413 18.2666 12.2306 17.5471 11.9933C16.3228 11.5898 15.7058 11.0523 14.2516 9.12328C13.6058 8.26646 13.2066 7.7924 12.8095 7.41063C11.9072 6.54318 11.0205 6.08825 9.8856 5.91024ZM20.982 7.82331C21.0142 7.24916 21.0913 6.87046 21.2461 6.52462C21.3074 6.38773 21.3648 6.27568 21.3736 6.27568C21.3825 6.27568 21.3559 6.37673 21.3144 6.5002C21.2019 6.83585 21.1833 7.29492 21.2609 7.82904C21.3593 8.50675 21.4153 8.60454 22.1237 9.33661C22.4559 9.67999 22.8425 10.1131 22.9826 10.299L23.2374 10.6371L22.9826 10.3955C22.671 10.1 21.9546 9.52377 21.7964 9.4414C21.6902 9.38616 21.6744 9.38711 21.609 9.45299C21.5487 9.51369 21.5359 9.6049 21.5276 10.0361C21.5145 10.7082 21.424 11.1395 21.2053 11.5708C21.087 11.8041 21.0684 11.7543 21.1754 11.491C21.2553 11.2944 21.2634 11.208 21.2629 10.5574C21.2616 9.25022 21.1081 8.93596 20.208 8.39762C19.9801 8.26125 19.6043 8.06457 19.3731 7.96052C19.1421 7.85649 18.9584 7.76588 18.965 7.75911C18.9906 7.73345 19.8684 7.99252 20.2217 8.12992C20.7472 8.33433 20.8339 8.36082 20.8978 8.33616C20.9405 8.31963 20.9612 8.19365 20.982 7.82331ZM9.55166 6.81977C9.46694 7.82897 9.8583 9.17901 10.4908 10.0595C10.9812 10.7421 11.7413 11.2725 12.3024 11.3237C12.6698 11.3573 12.7802 11.241 12.614 10.9955C12.3832 10.6547 12.0994 10.13 12.0243 9.90538C11.9776 9.76581 11.8762 9.35357 11.799 8.9893C11.5351 7.74561 11.2758 7.26128 10.6767 6.89341C10.4584 6.75933 9.99222 6.58388 9.72185 6.53403L9.57787 6.50745L9.55166 6.81977ZM20.2148 16.6128C17.2588 15.4094 16.2176 14.3648 16.2176 12.6023C16.2176 12.3429 16.2265 12.1307 16.2373 12.1307C16.2481 12.1307 16.3624 12.2163 16.4914 12.3209C17.0908 12.807 17.762 13.0147 19.6203 13.2887C20.7137 13.4501 21.3291 13.5803 21.8968 13.7708C23.701 14.3758 24.8172 15.6035 25.0834 17.2759C25.1608 17.7619 25.1155 18.6731 24.99 19.1534C24.891 19.5327 24.5888 20.2164 24.5087 20.2426C24.4865 20.2499 24.4647 20.1638 24.459 20.0467C24.4287 19.4187 24.1148 18.8074 23.5878 18.3494C22.9885 17.8287 22.1833 17.4143 20.2148 16.6128ZM17.9968 16.4804C18.0383 16.6053 18.1026 16.8898 18.1395 17.1127C18.3763 18.5375 17.6366 19.6886 16.1978 20.1347C16.0455 20.1819 15.4455 20.3007 14.8645 20.3984C13.6884 20.5964 13.1634 20.7367 12.6361 20.9935C12.2621 21.1757 11.8093 21.4485 11.8362 21.4756C11.8449 21.4844 11.9303 21.4638 12.0259 21.4298C12.6909 21.1937 13.431 21.0715 14.5555 21.0124C15.0017 20.989 15.5093 20.9516 15.6834 20.9294C16.6852 20.8018 17.3795 20.4941 17.9195 19.9385C18.2199 19.6292 18.399 19.3412 18.5433 18.935C18.6348 18.6773 18.6472 18.5816 18.6479 18.1251C18.6487 17.66 18.6376 17.5749 18.5384 17.2887C18.4086 16.9136 18.2554 16.6322 18.0615 16.412L17.9214 16.2531L17.9968 16.4804ZM19.4947 19.5461C19.1018 18.6923 19.0117 17.8681 19.2268 17.0995C19.2499 17.0173 19.2868 16.9501 19.3092 16.9501C19.3315 16.9501 19.4241 17.0008 19.5151 17.0627C19.696 17.1859 20.0591 17.3934 21.0261 17.9264C22.2329 18.5917 22.9209 19.1067 23.3887 19.6954C23.7985 20.2107 24.052 20.7977 24.174 21.5135C24.2432 21.919 24.2027 22.8947 24.0998 23.303C23.7754 24.5904 23.0213 25.6016 21.9458 26.1917C21.7883 26.2781 21.6468 26.349 21.6314 26.3494C21.6161 26.3497 21.6736 26.2022 21.759 26.0213C22.1208 25.2566 22.162 24.5127 21.8885 23.6848C21.721 23.1778 21.3795 22.5592 20.69 21.5137C19.8883 20.2982 19.6918 19.9746 19.4947 19.5461ZM12.0967 22.3461C10.8534 22.5503 9.48855 23.2155 8.39159 24.152L8.06501 24.4309L8.35201 24.4763C9.84975 24.7126 10.2531 24.9223 11.292 26.0044C11.8898 26.627 12.0917 26.7656 12.5876 26.8936C13.316 27.0816 14.0339 26.7362 14.2802 26.0792C14.3902 25.7857 14.3755 25.2996 14.2493 25.0555C13.949 24.4743 13.0742 24.2865 12.6512 24.7122C12.2989 25.0668 12.4015 25.601 12.8398 25.6929C12.9401 25.714 12.9372 25.7095 12.8142 25.6533C12.6224 25.5655 12.5391 25.444 12.538 25.2505C12.5356 24.7969 13.0489 24.5423 13.5265 24.7601C13.8762 24.9197 14.0151 25.1281 14.0151 25.4936C14.0151 26.0564 13.5414 26.4805 12.9901 26.4112C12.6954 26.374 12.335 26.1835 12.1418 25.9626C11.6556 25.4067 11.845 24.5295 12.5239 24.1929C13.0407 23.9367 13.7277 23.9998 14.2604 24.3525C14.8725 24.7579 15.1328 25.1283 15.6599 26.3441C15.8316 26.7399 16.0525 27.1856 16.1507 27.3343C16.6501 28.0902 17.2485 28.4609 17.9692 28.4609C18.3667 28.4609 18.6657 28.3874 19.0419 28.1976C19.3215 28.0563 19.7177 27.7881 19.6892 27.7593C19.6811 27.7512 19.5651 27.7877 19.4315 27.8403C18.6446 28.1507 17.8446 28.1294 17.3801 27.7855C17.0875 27.569 16.8515 27.1378 16.7302 26.5986C16.7092 26.5052 16.64 26.093 16.5762 25.6824C16.4147 24.6418 16.2596 24.174 15.898 23.6372C15.5279 23.0881 14.8166 22.6272 14.0213 22.4213C13.5251 22.2929 12.6325 22.258 12.0967 22.3461ZM10.3554 14.3006C10.4628 13.8996 10.8096 13.5172 11.1665 13.4064C11.3933 13.336 11.8623 13.381 12.0828 13.4943C12.5102 13.714 12.8204 14.2144 12.7531 14.5756C12.671 15.016 11.9646 15.3684 11.152 15.3742C10.737 15.3771 10.5837 15.3207 10.4252 15.1067C10.3271 14.9742 10.2899 14.5452 10.3554 14.3006ZM11.9737 13.6513C12.1868 13.7829 12.2416 13.9774 12.1164 14.1574C12.03 14.2815 11.7628 14.3993 11.5676 14.3993C11.2742 14.3993 10.9541 14.1886 10.9541 13.9957C10.9541 13.6081 11.5679 13.4006 11.9737 13.6513ZM75.6661 14.7612C75.0032 12.554 76.0964 10.7231 78.429 10.1348C79.098 9.966 82.1271 10.0422 82.646 10.2409C82.8367 10.3138 82.9196 10.5933 82.9214 11.1678C82.9227 11.6202 82.972 12.1697 83.0308 12.3889C83.12 12.721 83.0679 12.7864 82.7177 12.7811C82.401 12.7761 82.2095 12.5903 81.9421 12.0282C81.515 11.1304 80.9979 10.8448 79.7928 10.8415C78.2544 10.8371 77.1288 11.8739 77.312 13.1267C77.4314 13.942 78.2451 14.7441 80.0711 15.8469C81.8086 16.8959 82.8227 17.7586 83.2266 18.5314C84.3071 20.5978 83.3845 22.8091 80.9773 23.9232C79.7416 24.4951 77.6707 24.5542 76.2147 24.0592L75.2823 23.7421V22.2508C75.2823 20.9002 75.3145 20.7592 75.622 20.7592C75.8793 20.7592 75.9904 20.9294 76.0806 21.4627C76.3054 22.7886 77.3119 23.5935 78.7455 23.5935C80.1498 23.5935 81.1315 22.8254 81.5076 21.4327C81.6678 20.8394 81.6402 20.6206 81.3225 19.9661C80.9417 19.1814 80.2861 18.6607 78.0594 17.3748C76.8239 16.6612 75.9501 15.7071 75.6661 14.7612ZM32.0168 11.016C31.713 11.016 31.5944 10.9166 31.5944 10.6617C31.5944 10.3242 31.713 10.3074 34.0938 10.3074C36.3036 10.3074 36.5864 10.3407 36.5357 10.5945C36.504 10.7525 36.1986 10.9717 35.8568 11.0817L35.2351 11.2817L35.1821 15.799C35.1465 18.8133 35.1965 20.5521 35.3321 21.0249C35.7352 22.4308 36.965 23.2393 38.7001 23.2393C39.908 23.2393 40.6136 22.9566 41.5001 22.117C42.4536 21.2145 42.6057 20.3569 42.6026 15.8997C42.5998 11.5032 42.5232 11.1403 41.58 11.0491C41.1508 11.0075 41.007 10.9074 41.007 10.6505C41.007 10.3302 41.1486 10.3074 43.1381 10.3074C45.1507 10.3074 45.2691 10.327 45.2691 10.6617C45.2691 10.8799 45.1498 11.017 44.9583 11.0186C44.1358 11.0259 44.1207 11.1042 44.01 15.9251C43.8952 20.9315 43.7879 21.5243 42.7743 22.7506C42.482 23.1044 41.7849 23.6181 41.2254 23.8923C40.3134 24.339 40.0233 24.3903 38.4318 24.3874C36.9647 24.3844 36.5015 24.3135 35.7679 23.9792C34.6971 23.4912 34.0007 22.8597 33.4872 21.9106C33.1289 21.2482 33.0982 20.8897 33.0153 16.4013C32.9202 11.2636 32.8742 11.016 32.0168 11.016ZM48.6351 11.016C48.2291 11.016 48.1106 10.9359 48.1106 10.6617C48.1106 10.3295 48.2241 10.3083 49.9309 10.3219L51.7513 10.3364L52.6223 11.3405C53.101 11.8927 54.6619 13.6201 56.0905 15.1789C57.5193 16.7379 59.1596 18.5514 59.7356 19.209C60.3117 19.8668 60.8538 20.4049 60.9405 20.4049C61.0295 20.4049 61.0738 18.547 61.0421 16.1377L60.9861 11.8705L60.4877 11.4433C60.2137 11.2082 59.7944 11.016 59.5555 11.016C59.2378 11.016 59.1215 10.9196 59.1215 10.6567C59.1215 10.3107 59.2121 10.2992 61.5633 10.3467C63.5625 10.3871 64.0052 10.4429 64.0052 10.6544C64.0052 10.8052 63.7579 10.9634 63.4115 11.034C63.0852 11.1007 62.7254 11.2473 62.6124 11.36C62.4665 11.5054 62.3922 13.3859 62.3561 17.8449L62.3051 24.1249H61.7904C61.3473 24.1249 60.8199 23.6258 57.9999 20.5377C56.1982 18.5646 54.0952 16.2197 53.3265 15.3267C52.5577 14.4337 51.8689 13.6963 51.7957 13.6881C51.5895 13.665 51.6393 21.6436 51.8502 22.401C52.0146 22.9911 52.1277 23.0927 52.8261 23.2792C53.3886 23.4292 53.6161 23.5814 53.6161 23.8075C53.6161 24.0977 53.4016 24.1249 51.1298 24.1249C48.8171 24.1249 48.6435 24.1018 48.6435 23.7929C48.6435 23.5667 48.8108 23.4274 49.1682 23.356C50.2526 23.1398 50.3246 22.7964 50.3854 17.548C50.4195 14.6086 50.3695 12.5519 50.2531 12.1212C50.0488 11.3639 49.5394 11.016 48.6351 11.016ZM67.2568 11.016C66.8763 11.016 66.758 10.9318 66.758 10.6617C66.758 10.3231 66.8763 10.3074 69.4218 10.3074C71.9672 10.3074 72.0858 10.3231 72.0858 10.6617C72.0858 10.9216 71.9672 11.016 71.6417 11.016C71.3976 11.016 71.0347 11.1786 70.8354 11.3774C70.4836 11.7283 70.4746 11.9028 70.5247 17.3264C70.5735 22.6208 70.5943 22.9272 70.9208 23.1652C71.1105 23.3034 71.4501 23.4164 71.6756 23.4164C71.9672 23.4164 72.0858 23.5186 72.0858 23.7707C72.0858 24.1093 71.9672 24.1249 69.4218 24.1249C66.9369 24.1249 66.758 24.1027 66.758 23.7934C66.758 23.544 66.9323 23.4339 67.4615 23.3494C68.5124 23.1818 68.5661 22.8386 68.5006 16.7145C68.4483 11.8101 68.4257 11.5044 68.1003 11.2672C67.9107 11.129 67.5311 11.016 67.2568 11.016ZM85.8389 11.016C85.5959 11.016 85.4112 10.8812 85.3536 10.6617C85.2641 10.3191 85.3484 10.3074 87.9082 10.3074C90.4369 10.3074 90.5553 10.3231 90.5553 10.6617C90.5553 10.9339 90.4369 11.016 90.0442 11.016C88.9263 11.016 88.9514 11.2186 90.6435 15.8514C91.5046 18.2097 92.341 20.4498 92.5017 20.8295L92.7938 21.5199L94.1502 17.9065C95.747 13.6532 95.9544 12.8666 95.6833 12.0909C95.4943 11.5502 94.7594 11.016 94.2049 11.016C94.0482 11.016 93.9296 10.8636 93.9296 10.6617C93.9296 10.3226 94.0482 10.3074 96.6824 10.3074C99.3166 10.3074 99.435 10.3226 99.435 10.6617C99.435 10.9138 99.3166 11.016 99.025 11.016C98.2783 11.016 97.9491 11.4131 98.0564 12.1848C98.1668 12.9791 101.221 21.5164 101.349 21.3887C101.558 21.1809 104.94 11.9905 104.94 11.6323C104.94 11.203 104.639 11.016 103.949 11.016C103.638 11.016 103.52 10.9184 103.52 10.6617C103.52 10.327 103.638 10.3074 105.651 10.3074C107.458 10.3074 107.782 10.3492 107.782 10.5823C107.782 10.7336 107.561 10.9343 107.29 11.0284C106.681 11.2401 106.528 11.4817 105.764 13.439C105.429 14.2985 104.38 16.9886 103.432 19.4165C102.484 21.8448 101.668 23.9374 101.619 24.0668C101.569 24.1963 101.275 24.3022 100.966 24.3022H100.404L99.1282 20.9806C98.4264 19.1539 97.5975 16.9897 97.2862 16.1713C96.7524 14.7689 96.7077 14.708 96.5068 15.1082C96.3897 15.3421 95.5469 17.5102 94.6336 19.9264L92.9735 24.3195L92.3539 24.2666L91.7342 24.2136L89.371 18.0272C88.0508 14.5709 86.8366 11.6587 86.6196 11.4284C86.4059 11.2015 86.0547 11.016 85.8389 11.016ZM121.349 11.0911C121.319 11.0238 121.319 10.782 121.319 10.782C121.319 10.782 121.313 10.6947 121.349 10.6482C121.386 10.6018 121.399 10.6006 121.529 10.5882L121.53 10.588C122.01 10.5424 122.972 10.4656 123.775 10.4305C123.848 10.4273 123.93 10.4236 124.019 10.4195L124.021 10.4194L124.022 10.4194C124.905 10.3793 126.487 10.3255 127.574 10.3799C129.659 10.4842 131.142 11.4931 131.647 13.1604C132.153 14.8276 131.886 16.3926 131.197 17.3888C130.508 18.385 129.349 19.2427 127.424 19.1869C125.834 19.1408 125.409 18.8429 125.069 18.6049C124.997 18.5545 124.929 18.5068 124.855 18.4649V20.5911C124.872 22.0411 124.884 22.7376 124.996 22.9954C125.147 23.3424 125.489 23.5562 126.155 23.7201C126.155 23.7201 126.456 23.7908 126.533 23.8662C126.611 23.9415 126.611 24.1089 126.611 24.1089C126.611 24.1089 126.627 24.2653 126.565 24.3451C126.502 24.4248 126.382 24.4089 126.382 24.4089L123.434 24.3851L121.657 24.3804C121.657 24.3804 121.47 24.4162 121.4 24.3411C121.33 24.2659 121.337 24.1093 121.337 24.1093C121.337 24.1093 121.352 23.9406 121.434 23.8651C121.515 23.7894 121.819 23.705 121.819 23.705C122.504 23.5124 122.801 23.3086 122.957 22.9247C123.082 22.6152 123.083 22.0413 123.081 17.3576C123.08 12.9159 123.074 12.0874 122.972 11.8491C122.821 11.4964 122.444 11.4029 121.908 11.2699C121.801 11.2435 121.688 11.2155 121.57 11.1837C121.57 11.1837 121.379 11.1584 121.349 11.0911ZM129.932 14.7154C129.932 15.4437 129.919 16.584 129.145 17.3129C128.37 18.0418 126.845 18.2413 125.81 18.0384C125.483 17.9744 125.297 17.8758 125.153 17.7998L125.138 17.7922L124.874 17.6525L124.858 15.0935C124.849 13.4901 124.865 12.4455 124.903 12.2962C124.938 11.4507 126.183 11.3455 126.792 11.3768C129.396 11.3768 129.856 13.5733 129.932 14.7154ZM113.171 10.4066C113.171 10.4066 113.044 10.4555 112.851 10.5286L112.156 10.8882L111.655 12.1395C111.38 12.8277 110.876 14.0912 110.536 14.9471C109.916 16.5061 109.507 17.5303 109.076 18.5994C108.949 18.9138 108.567 19.8714 108.226 20.7273C107.885 21.5831 107.545 22.3977 107.469 22.5374C107.456 22.5606 107.443 22.5856 107.429 22.612C107.239 22.9706 106.907 23.5935 106.323 23.6877C106.323 23.6877 106.001 23.7193 105.882 23.837C105.763 23.9549 105.775 24.0511 105.775 24.0511V24.1995C105.775 24.1995 105.785 24.2714 105.853 24.3071C105.92 24.343 106.012 24.3451 106.012 24.3451L108.15 24.3207H110.361C110.361 24.3207 110.517 24.339 110.578 24.289C110.638 24.2389 110.655 24.1647 110.655 24.1647V24.0085C110.655 24.0085 110.624 23.8391 110.536 23.7729C110.449 23.7069 110.121 23.6617 110.121 23.6617C109.236 23.5452 109.083 22.8752 109.193 22.2727C109.246 21.9766 109.602 20.8816 110.002 19.7791L110.141 19.3981L112.457 19.3804C113.731 19.3706 114.831 19.3772 114.902 19.3951C115.002 19.4205 115.143 19.7067 115.556 20.7258C116.182 22.2699 116.232 22.458 116.094 22.7469C116.085 22.7645 116.076 22.7839 116.067 22.8048C115.937 23.0842 115.684 23.6271 115.047 23.6823C115.047 23.6823 114.71 23.694 114.626 23.7951C114.542 23.8963 114.56 24.0126 114.56 24.0126V24.1672C114.56 24.1672 114.582 24.2578 114.626 24.2937C114.669 24.3295 114.742 24.3205 114.742 24.3205L116.845 24.3053L119.801 24.3052C119.801 24.3052 119.916 24.3176 119.948 24.273C119.979 24.2283 119.986 24.1758 119.986 24.1758V23.9705C119.986 23.9705 119.973 23.8614 119.916 23.8011C119.86 23.741 119.476 23.6775 119.476 23.6775C118.987 23.5985 118.743 23.1939 118.561 22.8927C118.515 22.8158 118.473 22.7457 118.431 22.6894C118.347 22.5746 118.047 21.9454 117.811 21.3403C117.576 20.7352 117.045 19.3681 116.631 18.3026C116.218 17.2372 115.64 15.7508 115.349 14.9998C115.057 14.2486 114.502 12.8194 114.116 11.8238C114.053 11.6603 113.996 11.5136 113.945 11.3822C113.686 10.7135 113.581 10.4431 113.553 10.4066C113.46 10.288 113.171 10.4066 113.171 10.4066ZM113.034 14.4753C112.941 14.2483 112.776 13.841 112.669 13.5703C112.474 13.0782 112.4 12.9648 112.339 13.0665C112.322 13.0962 112.199 13.4325 112.067 13.814C111.21 16.2835 110.821 17.3954 110.743 17.605C110.695 17.7367 110.655 17.8724 110.655 17.9066C110.655 17.946 111.352 17.9689 112.546 17.9689C113.587 17.9689 114.438 17.956 114.438 17.9402C114.438 17.9244 114.345 17.6887 114.232 17.4162C114.118 17.1437 113.84 16.4634 113.615 15.9045C113.389 15.3456 113.127 14.7025 113.034 14.4753Z" fill="white" fill-opacity="0.8"/>
</svg>
