<svg width="97" height="28" viewBox="0 0 97 28" fill="none" xmlns="http://www.w3.org/2000/svg">
<rect width="13.1758" height="13.1758" transform="matrix(0.866025 0.5 -2.20305e-08 1 1 7.52014)" fill="url(#paint0_linear_0_434)"/>
<rect width="13.1758" height="13.1758" transform="matrix(0.866025 -0.5 2.20305e-08 1 12.41 14.1078)" fill="url(#paint1_linear_0_434)"/>
<rect width="13.1758" height="13.1758" transform="matrix(0.866025 0.5 -0.866025 0.5 12.4106 1)" fill="url(#paint2_linear_0_434)"/>
<path d="M12.1218 14.6673L20.9489 19.2209L12.402 23.9848L3.64497 19.5012L12.1218 14.6673Z" fill="#338DF0"/>
<g filter="url(#filter0_f_0_434)">
<rect width="5.33364" height="5.33364" transform="matrix(0.866025 0.5 -0.866025 0.5 12.5643 15.7955)" fill="#0879DB"/>
</g>
<path d="M3.92518 9.27285L12.4721 4.15874L12.4721 14.3864L3.64496 19.4827L3.92518 9.27285Z" fill="url(#paint3_linear_0_434)"/>
<path d="M12.472 4.08881L21.0189 9.20681L20.8788 19.291L12.472 15.2731L12.472 4.08881Z" fill="url(#paint4_linear_0_434)"/>
<rect width="4.8815" height="4.8815" transform="matrix(0.866025 0.5 -2.20305e-08 1 8.18304 11.6885)" fill="#D0EFFD"/>
<rect width="4.8815" height="4.8815" transform="matrix(0.866025 -0.5 2.20305e-08 1 12.4104 14.1293)" fill="white"/>
<rect width="4.8815" height="4.8815" transform="matrix(0.866025 0.5 -0.866025 0.5 12.4106 9.27283)" fill="#C4E3FF"/>
<g filter="url(#filter1_b_0_434)">
<rect width="12.7939" height="12.7939" transform="matrix(0.866025 -0.5 2.20305e-08 1 12.4106 14.129)" fill="white" fill-opacity="0.06"/>
</g>
<path d="M1 7.61484L12.4106 14.2297M1 7.61484L12.4106 1L23.8212 7.61484M1 7.61484V20.6791L12.4106 27.294M12.4106 14.2297L23.8212 7.61484M12.4106 14.2297V27.294M23.8212 7.61484V20.6791L12.4106 27.294" stroke="white" stroke-width="0.5"/>
<path d="M43.8179 13.412C43.0325 13.412 42.2799 13.3091 41.5601 13.1034C40.8402 12.8884 40.2606 12.6126 39.8212 12.2761L40.5925 10.5652C41.0132 10.8644 41.5087 11.1121 42.0789 11.3084C42.6586 11.4954 43.2429 11.5889 43.8319 11.5889C44.2806 11.5889 44.6406 11.5468 44.9117 11.4627C45.1922 11.3692 45.3978 11.243 45.5287 11.0841C45.6596 10.9251 45.725 10.7428 45.725 10.5371C45.725 10.2754 45.6222 10.0697 45.4165 9.92011C45.2108 9.76118 44.9397 9.63497 44.6032 9.54148C44.2666 9.43864 43.8926 9.34515 43.4813 9.26101C43.0793 9.16752 42.6726 9.05533 42.2612 8.92445C41.8592 8.79356 41.49 8.62528 41.1534 8.4196C40.8168 8.21393 40.541 7.94281 40.326 7.60624C40.1203 7.26968 40.0175 6.83963 40.0175 6.31608C40.0175 5.75515 40.1671 5.24563 40.4662 4.78753C40.7748 4.32008 41.2329 3.9508 41.8405 3.67968C42.4576 3.39921 43.2289 3.25897 44.1544 3.25897C44.7714 3.25897 45.3791 3.33376 45.9775 3.48335C46.5758 3.62358 47.104 3.83861 47.5621 4.12843L46.8609 5.85331C46.4028 5.59154 45.9447 5.39989 45.4866 5.27835C45.0285 5.14746 44.5798 5.08202 44.1404 5.08202C43.701 5.08202 43.3411 5.13344 43.0606 5.23628C42.7801 5.33912 42.5791 5.47468 42.4576 5.64296C42.336 5.80189 42.2753 5.98887 42.2753 6.2039C42.2753 6.45632 42.3781 6.662 42.5838 6.82093C42.7895 6.97051 43.0606 7.09205 43.3971 7.18554C43.7337 7.27903 44.103 7.37252 44.505 7.46601C44.9164 7.5595 45.323 7.66701 45.725 7.78855C46.1364 7.91008 46.5104 8.07369 46.8469 8.27937C47.1835 8.48505 47.4546 8.75617 47.6603 9.09273C47.8753 9.42929 47.9828 9.85467 47.9828 10.3689C47.9828 10.9205 47.8286 11.4253 47.52 11.8834C47.2115 12.3415 46.7488 12.7108 46.1317 12.9913C45.524 13.2717 44.7527 13.412 43.8179 13.412Z" fill="url(#paint5_linear_0_434)"/>
<path d="M51.26 13.2437L55.6353 3.42725H57.8791L62.2684 13.2437H59.8845L56.2945 4.57718H57.192L53.5879 13.2437H51.26ZM53.4477 11.1402L54.0507 9.41527H59.0991L59.7162 11.1402H53.4477Z" fill="url(#paint6_linear_0_434)"/>
<path d="M66.3019 13.2437V3.42725H71.098C72.332 3.42725 73.2576 3.66098 73.8746 4.12843C74.501 4.59587 74.8142 5.21291 74.8142 5.97952C74.8142 6.49372 74.688 6.94247 74.4355 7.32577C74.1831 7.69973 73.8372 7.98955 73.3978 8.19523C72.9584 8.40091 72.4536 8.50374 71.8833 8.50374L72.1497 7.92878C72.7668 7.92878 73.3137 8.03162 73.7905 8.2373C74.2673 8.43363 74.6365 8.72812 74.8983 9.12078C75.1694 9.51343 75.305 9.9949 75.305 10.5652C75.305 11.4066 74.9731 12.0657 74.3093 12.5425C73.6456 13.0099 72.6686 13.2437 71.3784 13.2437H66.3019ZM68.5597 11.5328H71.2101C71.7991 11.5328 72.2432 11.4393 72.5424 11.2523C72.8509 11.056 73.0051 10.7475 73.0051 10.3268C73.0051 9.91544 72.8509 9.6116 72.5424 9.41527C72.2432 9.20959 71.7991 9.10675 71.2101 9.10675H68.3914V7.45198H70.8175C71.3691 7.45198 71.7898 7.3585 72.0796 7.17152C72.3788 6.97519 72.5284 6.6807 72.5284 6.28804C72.5284 5.90473 72.3788 5.61959 72.0796 5.43261C71.7898 5.23628 71.3691 5.13812 70.8175 5.13812H68.5597V11.5328Z" fill="url(#paint7_linear_0_434)"/>
<path d="M78.7498 13.2437L83.1252 3.42725H85.3689L89.7582 13.2437H87.3743L83.7843 4.57718H84.6818L81.0777 13.2437H78.7498ZM80.9375 11.1402L81.5405 9.41527H86.5889L87.206 11.1402H80.9375Z" fill="url(#paint8_linear_0_434)"/>
<path d="M93.7917 13.2437V3.42725H96.0635V13.2437H93.7917Z" fill="url(#paint9_linear_0_434)"/>
<path d="M41.6372 17.883V20.267H44.4419V21.3538H41.6372V23.843H44.7925V24.9298H40.305V16.7962H44.7925V17.883H41.6372Z" fill="white"/>
<path d="M46.7489 21.7044C46.7489 21.0422 46.8814 20.4618 47.1463 19.9632C47.4189 19.4568 47.7929 19.0672 48.2681 18.7945C48.7434 18.5219 49.2887 18.3855 49.9042 18.3855C50.6833 18.3855 51.326 18.5725 51.8324 18.9465C52.3466 19.3126 52.6933 19.8385 52.8725 20.5241H51.4351C51.3182 20.2047 51.1313 19.9554 50.8742 19.7762C50.6171 19.597 50.2938 19.5074 49.9042 19.5074C49.3589 19.5074 48.9226 19.7022 48.5954 20.0917C48.2759 20.4735 48.1162 21.011 48.1162 21.7044C48.1162 22.3978 48.2759 22.9393 48.5954 23.3288C48.9226 23.7183 49.3589 23.9131 49.9042 23.9131C50.6755 23.9131 51.1858 23.5742 51.4351 22.8964H52.8725C52.6855 23.5508 52.3349 24.0728 51.8208 24.4624C51.3066 24.8441 50.6677 25.035 49.9042 25.035C49.2887 25.035 48.7434 24.8986 48.2681 24.626C47.7929 24.3455 47.4189 23.956 47.1463 23.4573C46.8814 22.9509 46.7489 22.3666 46.7489 21.7044Z" fill="white"/>
<path d="M57.7528 25.035C57.1451 25.035 56.5958 24.8986 56.105 24.626C55.6142 24.3455 55.2286 23.956 54.9481 23.4573C54.6676 22.9509 54.5274 22.3666 54.5274 21.7044C54.5274 21.05 54.6715 20.4696 54.9598 19.9632C55.248 19.4568 55.6415 19.0672 56.1401 18.7945C56.6387 18.5219 57.1957 18.3855 57.8112 18.3855C58.4267 18.3855 58.9837 18.5219 59.4823 18.7945C59.981 19.0672 60.3744 19.4568 60.6626 19.9632C60.9509 20.4696 61.095 21.05 61.095 21.7044C61.095 22.3588 60.947 22.9393 60.651 23.4457C60.3549 23.9521 59.9498 24.3455 59.4356 24.626C58.9292 24.8986 58.3683 25.035 57.7528 25.035ZM57.7528 23.878C58.0956 23.878 58.415 23.7962 58.7111 23.6326C59.0149 23.469 59.2603 23.2236 59.4473 22.8964C59.6343 22.5692 59.7278 22.1719 59.7278 21.7044C59.7278 21.237 59.6382 20.8435 59.459 20.5241C59.2798 20.1969 59.0422 19.9515 58.7461 19.7879C58.4501 19.6243 58.1306 19.5425 57.7878 19.5425C57.445 19.5425 57.1256 19.6243 56.8296 19.7879C56.5413 19.9515 56.3115 20.1969 56.1401 20.5241C55.9687 20.8435 55.883 21.237 55.883 21.7044C55.883 22.3978 56.0583 22.9354 56.4089 23.3171C56.7672 23.6911 57.2152 23.878 57.7528 23.878Z" fill="white"/>
<path d="M65.6608 23.7378L67.4838 18.4907H68.8979L66.4438 24.9298H64.8544L62.412 18.4907H63.8377L65.6608 23.7378Z" fill="white"/>
<path d="M76.566 21.5525C76.566 21.794 76.5504 22.0122 76.5193 22.2069H71.5994C71.6383 22.7211 71.8292 23.134 72.172 23.4457C72.5148 23.7573 72.9355 23.9131 73.4341 23.9131C74.1509 23.9131 74.6573 23.6132 74.9533 23.0133H76.3907C76.196 23.6054 75.8415 24.0923 75.3273 24.474C74.8209 24.848 74.1898 25.035 73.4341 25.035C72.8187 25.035 72.2655 24.8986 71.7747 24.626C71.2917 24.3455 70.9099 23.956 70.6294 23.4573C70.3568 22.9509 70.2204 22.3666 70.2204 21.7044C70.2204 21.0422 70.3529 20.4618 70.6177 19.9632C70.8904 19.4568 71.2683 19.0672 71.7513 18.7945C72.2421 18.5219 72.8031 18.3855 73.4341 18.3855C74.0418 18.3855 74.5833 18.518 75.0585 18.7829C75.5337 19.0477 75.9038 19.4217 76.1687 19.9047C76.4336 20.38 76.566 20.9292 76.566 21.5525ZM75.1754 21.1318C75.1676 20.641 74.9923 20.2475 74.6495 19.9515C74.3067 19.6554 73.8821 19.5074 73.3757 19.5074C72.916 19.5074 72.5226 19.6554 72.1954 19.9515C71.8682 20.2397 71.6734 20.6332 71.6111 21.1318H75.1754Z" fill="white"/>
<path d="M79.9689 19.4256C80.1637 19.0984 80.4208 18.8452 80.7402 18.666C81.0674 18.479 81.4531 18.3855 81.8971 18.3855V19.7645H81.5582C81.0363 19.7645 80.6389 19.8969 80.3662 20.1618C80.1014 20.4267 79.9689 20.8864 79.9689 21.5408V24.9298H78.6367V18.4907H79.9689V19.4256Z" fill="white"/>
<path d="M86.2186 25.035C85.7122 25.035 85.2564 24.9454 84.8513 24.7662C84.454 24.5792 84.1384 24.3299 83.9047 24.0183C83.671 23.6989 83.5463 23.3444 83.5307 22.9548H84.9097C84.9331 23.2275 85.0616 23.4573 85.2954 23.6443C85.5369 23.8235 85.8368 23.9131 86.1952 23.9131C86.5692 23.9131 86.8574 23.843 87.06 23.7028C87.2703 23.5547 87.3755 23.3678 87.3755 23.1418C87.3755 22.9003 87.2586 22.7211 87.0249 22.6043C86.799 22.4874 86.4367 22.3588 85.9381 22.2186C85.4551 22.0862 85.0616 21.9576 84.7578 21.833C84.4539 21.7083 84.1891 21.5174 83.9631 21.2603C83.745 21.0032 83.6359 20.6643 83.6359 20.2436C83.6359 19.9008 83.7372 19.5892 83.9398 19.3087C84.1423 19.0205 84.4306 18.7945 84.8045 18.6309C85.1863 18.4673 85.6226 18.3855 86.1134 18.3855C86.8457 18.3855 87.4339 18.5725 87.878 18.9465C88.3299 19.3126 88.5714 19.8151 88.6026 20.454H87.2703C87.247 20.1657 87.1301 19.9359 86.9197 19.7645C86.7094 19.5931 86.425 19.5074 86.0666 19.5074C85.7161 19.5074 85.4473 19.5736 85.2603 19.7061C85.0733 19.8385 84.9798 20.0138 84.9798 20.232C84.9798 20.4033 85.0422 20.5475 85.1668 20.6643C85.2915 20.7812 85.4434 20.8747 85.6226 20.9448C85.8018 21.0071 86.0667 21.0889 86.4172 21.1902C86.8847 21.3149 87.2664 21.4434 87.5625 21.5759C87.8663 21.7005 88.1273 21.8875 88.3455 22.1368C88.5636 22.3861 88.6766 22.7172 88.6844 23.1301C88.6844 23.4963 88.5831 23.8235 88.3805 24.1118C88.178 24.4 87.8897 24.626 87.5157 24.7896C87.1496 24.9532 86.7172 25.035 86.2186 25.035Z" fill="white"/>
<path d="M96.785 21.5525C96.785 21.794 96.7694 22.0122 96.7383 22.2069H91.8184C91.8573 22.7211 92.0482 23.134 92.391 23.4457C92.7338 23.7573 93.1545 23.9131 93.6531 23.9131C94.3699 23.9131 94.8763 23.6132 95.1723 23.0133H96.6097C96.4149 23.6054 96.0605 24.0923 95.5463 24.474C95.0399 24.848 94.4088 25.035 93.6531 25.035C93.0376 25.035 92.4845 24.8986 91.9937 24.626C91.5106 24.3455 91.1289 23.956 90.8484 23.4573C90.5757 22.9509 90.4394 22.3666 90.4394 21.7044C90.4394 21.0422 90.5718 20.4618 90.8367 19.9632C91.1094 19.4568 91.4873 19.0672 91.9703 18.7945C92.4611 18.5219 93.022 18.3855 93.6531 18.3855C94.2608 18.3855 94.8022 18.518 95.2775 18.7829C95.7527 19.0477 96.1228 19.4217 96.3877 19.9047C96.6526 20.38 96.785 20.9292 96.785 21.5525ZM95.3943 21.1318C95.3866 20.641 95.2113 20.2475 94.8685 19.9515C94.5257 19.6554 94.1011 19.5074 93.5947 19.5074C93.135 19.5074 92.7416 19.6554 92.4144 19.9515C92.0871 20.2397 91.8924 20.6332 91.83 21.1318H95.3943Z" fill="white"/>
<defs>
<filter id="filter0_f_0_434" x="3.94525" y="11.7955" width="17.2382" height="13.3336" filterUnits="userSpaceOnUse" color-interpolation-filters="sRGB">
<feFlood flood-opacity="0" result="BackgroundImageFix"/>
<feBlend mode="normal" in="SourceGraphic" in2="BackgroundImageFix" result="shape"/>
<feGaussianBlur stdDeviation="2" result="effect1_foregroundBlur_0_434"/>
</filter>
<filter id="filter1_b_0_434" x="10.4106" y="5.73199" width="15.0798" height="23.1909" filterUnits="userSpaceOnUse" color-interpolation-filters="sRGB">
<feFlood flood-opacity="0" result="BackgroundImageFix"/>
<feGaussianBlur in="BackgroundImageFix" stdDeviation="1"/>
<feComposite in2="SourceAlpha" operator="in" result="effect1_backgroundBlur_0_434"/>
<feBlend mode="normal" in="SourceGraphic" in2="effect1_backgroundBlur_0_434" result="shape"/>
</filter>
<linearGradient id="paint0_linear_0_434" x1="4.56584e-07" y1="6.12518" x2="10.3996" y2="15.7156" gradientUnits="userSpaceOnUse">
<stop stop-color="#3D9FE7"/>
<stop offset="0.786458" stop-color="#0C6AD2"/>
</linearGradient>
<linearGradient id="paint1_linear_0_434" x1="8.59367" y1="1.18838" x2="10.8795" y2="12.3189" gradientUnits="userSpaceOnUse">
<stop stop-color="#D8EDFE"/>
<stop offset="1" stop-color="#A8D2FF"/>
</linearGradient>
<linearGradient id="paint2_linear_0_434" x1="12.1601" y1="0.893843" x2="5.1059" y2="14.0376" gradientUnits="userSpaceOnUse">
<stop stop-color="#3C94F0"/>
<stop offset="1" stop-color="#71B6FE"/>
</linearGradient>
<linearGradient id="paint3_linear_0_434" x1="8.05851" y1="6.7069" x2="12.4872" y2="14.3776" gradientUnits="userSpaceOnUse">
<stop stop-color="#98D0FD"/>
<stop offset="1" stop-color="#6FB5FF"/>
</linearGradient>
<linearGradient id="paint4_linear_0_434" x1="21.1753" y1="10.0073" x2="12.0764" y2="10.8727" gradientUnits="userSpaceOnUse">
<stop stop-color="#98D0FD"/>
<stop offset="1" stop-color="#6FB5FF"/>
</linearGradient>
<linearGradient id="paint5_linear_0_434" x1="97.2753" y1="17.3338" x2="88.6154" y2="-17.7342" gradientUnits="userSpaceOnUse">
<stop stop-color="#73C4FF"/>
<stop offset="1" stop-color="#2782E9"/>
</linearGradient>
<linearGradient id="paint6_linear_0_434" x1="97.2753" y1="17.3338" x2="88.6154" y2="-17.7342" gradientUnits="userSpaceOnUse">
<stop stop-color="#73C4FF"/>
<stop offset="1" stop-color="#2782E9"/>
</linearGradient>
<linearGradient id="paint7_linear_0_434" x1="97.2753" y1="17.3338" x2="88.6154" y2="-17.7342" gradientUnits="userSpaceOnUse">
<stop stop-color="#73C4FF"/>
<stop offset="1" stop-color="#2782E9"/>
</linearGradient>
<linearGradient id="paint8_linear_0_434" x1="97.2753" y1="17.3338" x2="88.6154" y2="-17.7342" gradientUnits="userSpaceOnUse">
<stop stop-color="#73C4FF"/>
<stop offset="1" stop-color="#2782E9"/>
</linearGradient>
<linearGradient id="paint9_linear_0_434" x1="97.2753" y1="17.3338" x2="88.6154" y2="-17.7342" gradientUnits="userSpaceOnUse">
<stop stop-color="#73C4FF"/>
<stop offset="1" stop-color="#2782E9"/>
</linearGradient>
</defs>
</svg>
